/* XPM */
static char *mouse[] = {
/* columns rows colors chars-per-pixel */
"64 64 206 2 ",
"   c #6E786B",
".  c #6F777C",
"X  c #76B354",
"o  c #7CB455",
"O  c #7EB65B",
"+  c #6C806A",
"@  c #768C7E",
"#  c #7EB562",
"$  c #81B657",
"%  c #83B95C",
"&  c #8BBB5E",
"*  c #838D7D",
"=  c #869D77",
"-  c #88B763",
";  c #8BBB62",
":  c #8EBB69",
">  c #93BE63",
",  c #93BC6B",
"<  c #98BE6E",
"1  c #8AA57B",
"2  c #96AC78",
"3  c #8BB270",
"4  c #8EBA72",
"5  c #96BA72",
"6  c #9ABE71",
"7  c #96BF7A",
"8  c #A7BF7A",
"9  c #8FC167",
"0  c #95C164",
"q  c #99C267",
"w  c #95C26B",
"e  c #9CC36B",
"r  c #9BC374",
"t  c #9CC873",
"y  c #99C37B",
"u  c #A2C66D",
"i  c #A3C86F",
"p  c #A5C574",
"a  c #ABC573",
"s  c #A4C973",
"d  c #ABCB74",
"f  c #A3C579",
"g  c #AAC67A",
"h  c #A5CB7D",
"j  c #ABCB7A",
"k  c #BACE77",
"l  c #B3CD7B",
"z  c #BACE7D",
"x  c #AFD27D",
"c  c #B5D27D",
"v  c #BBD37D",
"b  c #676E84",
"n  c #6E7B85",
"m  c #6C758D",
"M  c #707885",
"N  c #747C8C",
"B  c #797F8D",
"V  c #757F90",
"C  c #738184",
"Z  c #7E8781",
"A  c #76828C",
"S  c #79828D",
"D  c #7E8A8B",
"F  c #768191",
"G  c #7D8593",
"H  c #7D8699",
"J  c #848D87",
"K  c #869488",
"L  c #828B92",
"P  c #838B9B",
"I  c #8B9499",
"U  c #949E98",
"Y  c #96AB80",
"T  c #9CAD83",
"R  c #96B784",
"E  c #9AA994",
"W  c #A1BD83",
"Q  c #A6B78B",
"!  c #A6BA89",
"~  c #A2AD99",
"^  c #A7B49C",
"/  c #ADBA99",
"(  c #ADB6A9",
")  c #B3BFA8",
"_  c #A7A9BC",
"`  c #9FC483",
"'  c #A5C780",
"]  c #ABC686",
"[  c #ADCD82",
"{  c #A8C68A",
"}  c #AECD8B",
"|  c #B6C785",
" . c #B3CE83",
".. c #B6CC8A",
"X. c #B9CF8B",
"o. c #AED485",
"O. c #B5D181",
"+. c #BBD483",
"@. c #BDD984",
"#. c #BCD48C",
"$. c #B5DA89",
"%. c #BDD989",
"&. c #ABC495",
"*. c #ACCC94",
"=. c #A8C698",
"-. c #AECB9A",
";. c #B3CD94",
":. c #B4C699",
">. c #B4CD9B",
",. c #BFCE98",
"<. c #B4D293",
"1. c #BBD294",
"2. c #BCD993",
"3. c #BAD59D",
"4. c #B8CDA4",
"5. c #B7D2A4",
"6. c #BDD7AE",
"7. c #BAC6B0",
"8. c #C2D684",
"9. c #C2D986",
"0. c #C9DB87",
"q. c #C3D78A",
"w. c #CAD789",
"e. c #C5DA8B",
"r. c #C9DB8B",
"t. c #C3D692",
"y. c #C6DB93",
"u. c #CBDC94",
"i. c #C5D79C",
"p. c #C4DA9D",
"a. c #CBDD9A",
"s. c #D0DF96",
"d. c #D2DF9D",
"f. c #C8E18E",
"g. c #C6E197",
"h. c #CAE193",
"j. c #CCE298",
"k. c #D1E19C",
"l. c #C2D7A2",
"z. c #C2DAA3",
"x. c #CBDDA3",
"c. c #C7DAAB",
"v. c #D2DDAA",
"b. c #C2D3B1",
"n. c #C4DBB4",
"m. c #CCDFB4",
"M. c #CCE2A4",
"N. c #CEE3AC",
"B. c #D5E3A4",
"V. c #D5E5AB",
"C. c #D9E4AC",
"Z. c #DBE8AD",
"A. c #D3E4B4",
"S. c #D9E5B3",
"D. c #D4EBB2",
"F. c #DCE9B5",
"G. c #D7E7B8",
"H. c #DBE6BF",
"J. c #DCEBBC",
"K. c #E3EBBE",
"L. c #C3C3C5",
"P. c #C5C6CA",
"I. c #D6DDC7",
"U. c #D1DDCA",
"Y. c #CACAD3",
"T. c #D0D4D0",
"R. c #D7D7D8",
"E. c #D6E5C4",
"W. c #DCE4C3",
"Q. c #DDEBC2",
"!. c #DAECCD",
"~. c #DCE5D5",
"^. c #DFEBDA",
"/. c #E2ECC3",
"(. c #E2E7C8",
"). c #E4EBCB",
"_. c #E5F1C3",
"`. c #E5F1CD",
"'. c #E9F1CC",
"]. c #E5ECD5",
"[. c #E4ECD9",
"{. c #EAEFD8",
"}. c #ECF4D4",
"|. c #EDF8D5",
" X c #EEF3DB",
".X c #EDFADD",
"XX c #F0F5D6",
"oX c #F2F5DE",
"OX c #E4E4E5",
"+X c #E5EEE1",
"@X c #EBEEE5",
"#X c #E5E9EB",
"$X c #ECF2E5",
"%X c #EFF4EA",
"&X c #F4F7E5",
"*X c #F2F8E5",
"=X c #F4F6EC",
"-X c #F5FAEC",
";X c #F9FCED",
":X c #F5F6F3",
">X c #F6FAF3",
",X c #FCFDF4",
"<X c #F7F7F8",
"1X c #FEFFF9",
"2X c #FDFEFD",
"3X c white",
/* pixels */
"3X3X3X3X3X3X3X3X3X3X3X3X3X3X3X3X3X3X3X3X3X3X3X3X3X3X3X3X3X3X3X3X3X3X3X3X3X3X3X3X3X3X3X3X3X3X3X3X3X3X3X3X3X3X3X3X3X3X3X3X3X3X3X3X",
"3X3X3X3X3X3X3X3X3X3X3X3X3X3X3X3X3X3X3X3X3X3X3X3X3X3X3X3X3X3X3X3X3X3X3X3X3X3X3X3X3X3X3X3X3X3X3X3X3X3X3X3X3X3X3X3X3X3X3X3X3X3X3X3X",
"3X3X3X3X3X3X3X3X3X3X3X3X3X3X3X3X3X3X3X3X3X3X3X3X3X3X3X3X3X3X3X3X3X3X3X3X3X3X3X3X3X3X3X3X3X3X3X3X3X3X3X3X3X3X3X3X3X3X3X3X3X3X3X3X",
"3X3X3X3X3X3X3X3X3X3X3X3X3X3X3X3X3X3X3X3X3X3X3X3X3X3X3X3X3X3X3X3X3X3X3X3X3X3X3X3X3X3X3X3X3X3X3X3X3X3X3X3X3X3X3X3X3X3X3X3X3X3X3X3X",
"3X3X3X3X3X3X3X3X3X3X3X3X3X3X3X3X3X3X3X3X3X3X3X3X3X3X3X3X3X3X3X3X3X3X3X3X3X3X3X3X3X3X3X3X3X3X3X3X3X3X3X3X3X3X3X3X3X3X3X3X3X3X3X3X",
"3X3X3X3X3X3X3X3X3X3X3X3X3X3X3X3X3X3X3X3X3X3X3X3X3X3X3X3X3X3X3X3X3X3X3X3X3X3X3X3X3X3X3X3X3X3X3X3X3X3X3X3X3X3X3X3X3X3X3X3X3X3X3X3X",
"3X3X3X3X3X3X3X3X3X3X3X3X3X3X3X3X3X3X3X3X3X3X3X3X3X3X3X3X3X3X3X3X3X3X3X3X3X3X3X3X3X3X3X3X3X3X3X3X3X3X3X3X3X3X3X3X3X3X3X3X3X3X3X3X",
"3X3X3X3X3X3X3X3X3X3X3X3X3X3X3X3X3X3X3X3X3X3X3X3X3X3X3X3X3X3X3X3X3X3X3X3X3X3X3X3X3X3X3X3X3X3X3X3X3X3X3X3X3X3X3X3X3X3X3X3X3X3X3X3X",
"3X3X3X3X3X3X3X3X3X3X3X3X3X3X3X3X3X3X3X3X3X3X3X3X3X3X3X3X3X3X3X3X3X3X3X3X3X3X3X3X3X3X3X3X3X3X3X3X3X3X3X3X3X3X3X3X3X3X3X3X3X3X3X3X",
"3X3X3X3X3X3X3X3X3X3X3X3X3X3X3X3X3X3X3X3X3X3X3X3X3X3X3X3X3X3X3X3X3X3X3X3X3X3X3X3X3X3X3X3X3X3X3X3X3X3X3X3X3X3X3X3X3X3X3X3X3X3X3X3X",
"3X3X3X3X3X3X3X3X3X3X3X3X3X3X3X3X3X3X3X3X3X3X3X3X3X3X3X3X3X3X3X3X3X3X3X3X3X3X3X3X3X3X3X3X3X3X3X3X3X3X3X3X3X3X3X3X3X3X3X3X3X3X3X3X",
"3X3X3X3X3X3X3X3X3X3X3X3X3X3X3X3X3X3X3X3X3X3X3X3X3X3X3X3X3X3X3X3X3X3X3X3X3X3X3X3X3X3X3X3X3X3X3X3X3X3X3X3X3X3X3X3X3X3X3X3X3X3X3X3X",
"3X3X3X3X3X3X3X3X3X3X3X3X3X3X3X3X3X3X3X3X3X3X3X3X3X3X3X3X3X3X3X3X3X3X3X3X3X3X3X3X3X3X3X3X3X3X3X3X3X3X3X3X3X3X3X3X3X3X3X3X3X3X3X3X",
"3X3X3X3X3X3X3X3X3X3X3X3X3X3X3X3X3X3X3X3X3X3X3X3X3X3X3X3X3X3X3X3X3X3X3X3X3X3X3X3X3X3X3X3X3X3X3X3X3X3X3X3X3X3X3X3X3X3X3X3X3X3X3X3X",
"3X3X3X3X3X3X3X3X3X3X3X3X3X3X3X3X3X3X3X3X3X3X3X3X3X3X3X3X3X3X3X3X3X3X3X3X3X3X3X3X3X3X3X3X3X3X3X3X3X3X3X3X3X3X3X3X3X3X3X3X3X3X3X3X",
"3X3X3X3X3X3X3X3X3X3X3X3X3X3X3X3X3X3X3X3X3X3X3X3X3X3X3X3X3X3X3X3X3X3X3X3X3X3X3X3X3X3X3X3X3X3X3X3X3X3X3X3X3X3X3X3X3X3X3X3X3X3X3X3X",
"3X3X3X3X3X3X3X3X3X3X3X3X3X3X3X3X3X3X3X3X3X3X3X3X3X3X3X3X3X3X3X3X3X3X3X3X3X3X3X3X3X3X3X3X3X3X3X3X3X3X3X3X3X3X3X3X3X3X3X3X3X3X3X3X",
"3X3X3X3X3X3X3X3X3X3X3X3X3X3X3X3X3X3X3X3X3X3X3X3X3X3X3X3X3X3X3X3X3X3X3X3X3X3X3X3X3X3X3X3X3X3X3X3X3X3X3X3X3X3X3X3X3X3X3X3X3X3X3X3X",
"3X3X3X3X3X3X3X3X3X3X3X3X3X3X3X3X3X3X3X3X3X3X3X3X3X3X3X3X3X3X3X3X3X3X3X3X3X3X3X3X3X3X3X3X3X3X3X3X3X3X3X3X3X3X3X3X3X3X3X3X3X3X3X3X",
"3X3X3X3X3X3X3X3X3X3X3X3X3X3X3X3X3X3X3X3X3X3X3X3X3X3X3X3X3X3X3X3X3X3X3X3X3X3X3X3X3X3X3X3X3X3X3X3X3X3X3X3X3X3X3X3X3X3X3X3X3X3X3X3X",
"3X3X3X3X3X3X3X3X3X3X3X3X3X3X3X3X3X3X3X3X3X3X3X3X3X3X3X3X3X3X3X3X3X3X3X3X3X3X3X3X;X&X,X3X3X3X3X3X3X3X3X3X3X3X3X3X3X3X3X3X3X3X3X3X",
"3X3X3X3X3X3X3X3X3X3X3X3X3X3X3X3X3X3X3X3X3X3X3X3X3X3X3X3X3X3X3X3X3X3X3X3X3X,XoX'.F.S.{.3X,X%X$X-X,X3X3X3X3X3X3X3X3X3X3X3X3X3X3X3X",
"3X3X3X3X3X3X3X3X3X3X3X3X3X3X3X3X3X3X3X3X3X3X3X3X3X3X3X3X3X3X3X3X3X3X3X,X X`.D.2.j f } *.` 4 4 7 ` *.n.~.=X3X3X3X3X3X3X3X3X3X3X3X",
"3X3X3X3X3X3X3X3X3X3X3X3X3X3X3X3X3X3X3X3X3X3X3X3X3X3X<X3X3X3X3X3X3X3X,X}.D.$.: o X X X X X o o X X X O - 7 b.$X3X3X3X3X3X3X3X3X3X",
"3X3X3X3X3X3X3X3X3X3X3X3X3X3X3X1X1X3X1X3X3X3X3X3X3XOXL.R.3X3X3X3X3X3X|.3., % O O % % % % % : t w 9 $ X o O # R U.3X3X3X3X3X3X3X3X",
"3X3X3X3X3X3X3X3X3X3X3X3X1X&XXX/.).}.A././.'. X;X,X<X<XP.:X3X3X3X3X}.<.- O $ ; s %.q.@.%.%. .#.a.j.%.j e w ; # R %X3X3X3X3X3X3X3X",
"3X3X3X3X3X3X3X3X3X3X;X`.M.#.O.j j s < w w t [ x.).$XOXP.<X3X3X3X.X<.: - w ' #.j.u.r.r.u.k.y.[ X.k.j.h.f.f.$.t &.@X3X3X3X3X3X3X3X",
"3X3X3X3X3X3X3X3X3X!.{ , - $ $ $ $ $ $ $ $ o % > ] ^ ( ~.3X3XY.T.6.1 + 2 l.K * v.B.u.y.B.B.V.2.f j u.r.r.r.9.y.E.,X3X3X3X3X3X3X3X",
"3X3X3X3X3X3X3X,XQ.r o o o o $ % ; > q e u q q w 3 = 1.A.].#X_ P C n . / 7.N M ) V.B.a.a.V.B.M.j < d r.r.v z t.W.:X3X3X3X3X3X3X3X",
"3X3X3X3X3X3X3X Xy.e 0 > e s j d +.r.r.r.r.r.e.%.W 1 g 1.) P P N N N B D I P H G / S.M.1.i.V.V.M.h j u.8.k 8.x.).=X3X3X3X3X3X3X3X",
"3X3X3X3X3X3X-XS.q.v @.9.q.e.@.O.q.w.r.0.0.r.r.u.,.T t.:.L V F N N S S N G H H H ^ Q.J.N.1.x.F.F.M.#.q.+.8.a.).,X3X3X3X3X3X3X3X3X",
"3X3X3X3X3X3X;XF.e.O.@.q.q.e.q.8.q.q.r.r.r.r.r.r.y.! Q E A n N A G G B B N b m D :.A.G.J.x.x.V.V.B.y.t.x.C.(.,X3X3X3X3X3X3X3X3X3X",
"3X3X3X3X3X3X1X}.V.q.l O.q.e.u.a.a.k.d.B.d.u.r.r.r.e...2 @ C S G L L S * ~ J K ! X. ...x.V.B.B.B.a.x.H.oX&X1X3X3X3X3X3X3X3X3X3X3X",
"3X3X3X3X3X3X3X;X`.V.#.j l #.N./._./././.K.Z.k.u.r.9.d < 1 K D D D L Z Q y.y.t.q.r.+.j g i./.J.W.).&X,X3X3X3X3X3X3X3X3X3X3X3X3X3X",
"3X3X3X3X3X3X3X3X1X XQ.A.3.;.;.3.c.A.G.Q.J.Z.k.u.e.d > > [ Y T ] ! U   | r.r.r.8.9.r.@.s f b.$X3X3X3X3X3X3X3X3X3X3X3X3X3X3X3X3X3X",
"3X3X3X3X3X3X3X3X3X3X3X3X-XE.n.6.5.5.5.l.l.t.q.@.c > > s O.8 j l e.:.2 q.u.y.r.q.+.r.9.c s 6 ;.].3X3X3X3X3X3X3X3X3X3X3X3X3X3X3X3X",
"3X3X3X3X3X3X3X3X3X3X3X3X3X3X3X>X$X^.!.m.l.#.@.+.q & q @.O.j j l l c 9.r.u.a.u.q.z 8.9.+.+.s > W ~.3X3X3X3X3X3X3X3X3X3X3X3X3X3X3X",
"3X3X3X3X3X3X3X3X3X3X3X3X3X3X3X3X3X1X*X`.S.u.e.d > q +.e.c e j 9.O.d a l %.y.y.e.O.9.8.l +.@.s , ! @X3X3X3X3X3X3X3X3X3X3X3X3X3X3X",
"3X3X3X3X3X3X3X3X3X3X3X3X3X3X3X3X3X;X).F.B.r.c q > d r.y.j <  .y.e.%. .j g g j #.q.q.9.v v 9.@.s 5 b.3X3X3X3X3X3X3X3X3X3X3X3X3X3X",
"3X3X3X3X3X3X3X3X3X3X3X3X3X3X3X3X3X XS.k.r.9.q > e O.u.g.w , v.'.`.Q.J.N.<.h e e j +.9.9.8.8.9.c q W @X3X3X3X3X3X3X3X3X3X3X3X3X3X",
"3X3X3X3X3X3X3X3X3X3X3X3X3X3X3X3X;XK.B.u.r.s > e c +.g.o.: &.1X3X3X3X1X;X*X`.p.h e e s c +.8.8.@.w 5 I.3X3X3X3X3X3X3X3X3X3X3X3X3X",
"3X3X3X3X3X3X3X3X3X3X3X3X3X3X3X3X}.C.s.r.+.q > O.@.x [ y { [.3X3X3X3X3X3X3X3X;X`.z.[ u e s c v c w , b.3X3X3X3X3X3X3X3X3X3X3X3X3X",
"3X3X3X3X3X3X3X3X3X3X3X3X3X3X3X,X'.B.r.r.s > p r.@.t y =.^.3X3X3X3X3X3X3X3X3X3X3X;X.XN.O.d u u i q - 4.<X3X3X3X3X3X3X3X3X3X3X3X3X",
"3X3X3X3X3X3X3X3X3X3X3X3X3X3X3X,X/.k.0.c q q c +.s r -.[.3X3X3X3X3X3X3X3X3X3X3X3X3X3X;X_.j.+. .+. .] I.3X3X3X3X3X3X3X3X3X3X3X3X3X",
"3X3X3X3X3X3X3X3X3X3X3X3X3X3X3X,X).d.r.d > s x q 6 &.+X3X3X3X3X3X3X3X3X3X3X3X3X3X3X3X3X,X'.S.S./. X-X3X3X3X3X3X3X3X3X3X3X3X3X3X3X",
"3X3X3X3X3X3X3X3X3X3X3X3X3X3X3X3X&XC.u.s > e e < >.$X3X3X3X3X3X3X3X3X3X3X3X3X3X3X3X3X3X3X3X,X,X1X3X3X3X3X3X3X3X3X3X3X3X3X3X3X3X3X",
"3X3X3X3X3X3X3X3X3X3X3X3X3X3X3X3X,X/.y.q & > r l.-X3X3X3X3X3X3X3X3X3X3X3X3X3X3X3X3X3X3X3X3X3X3X3X3X3X3X3X3X3X3X3X3X3X3X3X3X3X3X3X",
"3X3X3X3X3X3X3X3X3X3X3X3X3X3X3X3X3XQ.} > > [ N.*X3X3X3X3X3X3X3X3X3X3X3X3X3X3X3X3X3X3X3X3X3X3X3X3X3X3X3X3X3X3X3X3X3X3X3X3X3X3X3X3X",
"3X3X3X3X3X3X3X3X3X3X3X3X3X3X3X3X3X[.E.<.;./.-X3X3X3X3X3X3X3X3X3X3X3X3X3X3X3X3X3X3X3X3X3X3X3X3X3X3X3X3X3X3X3X3X3X3X3X3X3X3X3X3X3X",
"3X3X3X3X3X3X3X3X3X3X3X3X3X3X3X3X3X3X3X@X$X1X3X3X3X3X3X3X3X3X3X3X3X3X3X3X3X3X3X3X3X3X3X3X3X3X3X3X3X3X3X3X3X3X3X3X3X3X3X3X3X3X3X3X",
"3X3X3X3X3X3X3X3X3X3X3X3X3X3X3X3X3X3X3X3X3X3X3X3X3X3X3X3X3X3X3X3X3X3X3X3X3X3X3X3X3X3X3X3X3X3X3X3X3X3X3X3X3X3X3X3X3X3X3X3X3X3X3X3X",
"3X3X3X3X3X3X3X3X3X3X3X3X3X3X3X3X3X3X3X3X3X3X3X3X3X3X3X3X3X3X3X3X3X3X3X3X3X3X3X3X3X3X3X3X3X3X3X3X3X3X3X3X3X3X3X3X3X3X3X3X3X3X3X3X",
"3X3X3X3X3X3X3X3X3X3X3X3X3X3X3X3X3X3X3X3X3X3X3X3X3X3X3X3X3X3X3X3X3X3X3X3X3X3X3X3X3X3X3X3X3X3X3X3X3X3X3X3X3X3X3X3X3X3X3X3X3X3X3X3X",
"3X3X3X3X3X3X3X3X3X3X3X3X3X3X3X3X3X3X3X3X3X3X3X3X3X3X3X3X3X3X3X3X3X3X3X3X3X3X3X3X3X3X3X3X3X3X3X3X3X3X3X3X3X3X3X3X3X3X3X3X3X3X3X3X",
"3X3X3X3X3X3X3X3X3X3X3X3X3X3X3X3X3X3X3X3X3X3X3X3X3X3X3X3X3X3X3X3X3X3X3X3X3X3X3X3X3X3X3X3X3X3X3X3X3X3X3X3X3X3X3X3X3X3X3X3X3X3X3X3X",
"3X3X3X3X3X3X3X3X3X3X3X3X3X3X3X3X3X3X3X3X3X3X3X3X3X3X3X3X3X3X3X3X3X3X3X3X3X3X3X3X3X3X3X3X3X3X3X3X3X3X3X3X3X3X3X3X3X3X3X3X3X3X3X3X",
"3X3X3X3X3X3X3X3X3X3X3X3X3X3X3X3X3X3X3X3X3X3X3X3X3X3X3X3X3X3X3X3X3X3X3X3X3X3X3X3X3X3X3X3X3X3X3X3X3X3X3X3X3X3X3X3X3X3X3X3X3X3X3X3X",
"3X3X3X3X3X3X3X3X3X3X3X3X3X3X3X3X3X3X3X3X3X3X3X3X3X3X3X3X3X3X3X3X3X3X3X3X3X3X3X3X3X3X3X3X3X3X3X3X3X3X3X3X3X3X3X3X3X3X3X3X3X3X3X3X",
"3X3X3X3X3X3X3X3X3X3X3X3X3X3X3X3X3X3X3X3X3X3X3X3X3X3X3X3X3X3X3X3X3X3X3X3X3X3X3X3X3X3X3X3X3X3X3X3X3X3X3X3X3X3X3X3X3X3X3X3X3X3X3X3X",
"3X3X3X3X3X3X3X3X3X3X3X3X3X3X3X3X3X3X3X3X3X3X3X3X3X3X3X3X3X3X3X3X3X3X3X3X3X3X3X3X3X3X3X3X3X3X3X3X3X3X3X3X3X3X3X3X3X3X3X3X3X3X3X3X",
"3X3X3X3X3X3X3X3X3X3X3X3X3X3X3X3X3X3X3X3X3X3X3X3X3X3X3X3X3X3X3X3X3X3X3X3X3X3X3X3X3X3X3X3X3X3X3X3X3X3X3X3X3X3X3X3X3X3X3X3X3X3X3X3X",
"3X3X3X3X3X3X3X3X3X3X3X3X3X3X3X3X3X3X3X3X3X3X3X3X3X3X3X3X3X3X3X3X3X3X3X3X3X3X3X3X3X3X3X3X3X3X3X3X3X3X3X3X3X3X3X3X3X3X3X3X3X3X3X3X",
"3X3X3X3X3X3X3X3X3X3X3X3X3X3X3X3X3X3X3X3X3X3X3X3X3X3X3X3X3X3X3X3X3X3X3X3X3X3X3X3X3X3X3X3X3X3X3X3X3X3X3X3X3X3X3X3X3X3X3X3X3X3X3X3X",
"3X3X3X3X3X3X3X3X3X3X3X3X3X3X3X3X3X3X3X3X3X3X3X3X3X3X3X3X3X3X3X3X3X3X3X3X3X3X3X3X3X3X3X3X3X3X3X3X3X3X3X3X3X3X3X3X3X3X3X3X3X3X3X3X"
};
