/* XPM */
static char *portal[] = {
/* columns rows colors chars-per-pixel */
"64 64 251 2 ",
"   c #041C37",
".  c #041D39",
"X  c #03213E",
"o  c #052845",
"O  c #032C46",
"+  c #042E4A",
"@  c #112F4D",
"#  c #04314C",
"$  c #0E314E",
"%  c #022E54",
"&  c #033353",
"*  c #0A3554",
"=  c #083857",
"-  c #02345A",
";  c #053C5C",
":  c #0A3D5C",
">  c #103957",
",  c #133D5C",
"<  c #043D62",
"1  c #0B3E65",
"2  c #033C68",
"3  c #143F62",
"4  c #06405C",
"5  c #14415F",
"6  c #044264",
"7  c #0A4265",
"8  c #03436B",
"9  c #09486B",
"0  c #144164",
"q  c #194769",
"w  c #1F516F",
"e  c #034B74",
"r  c #084972",
"t  c #054D7A",
"y  c #164C73",
"u  c #0C5275",
"i  c #05527C",
"p  c #0B537D",
"a  c #1C5374",
"s  c #13557C",
"d  c #1B557B",
"f  c #17587B",
"g  c #28526F",
"h  c #235473",
"j  c #265777",
"k  c #2C5B7B",
"l  c #375B76",
"z  c #335D7B",
"x  c #2C627E",
"c  c #3A617C",
"v  c #405F7A",
"b  c #45647C",
"n  c #085885",
"m  c #025C8B",
"M  c #135B83",
"N  c #1B5D82",
"B  c #175C88",
"V  c #035C93",
"C  c #155D93",
"Z  c #2A5C82",
"A  c #07628E",
"S  c #18628A",
"D  c #036294",
"F  c #086897",
"G  c #03659A",
"H  c #0B6C9C",
"J  c #186996",
"K  c #126C9C",
"L  c #0C729E",
"P  c #24648C",
"I  c #27678C",
"U  c #396787",
"Y  c #276B95",
"T  c #366C92",
"R  c #29739B",
"E  c #36769A",
"W  c #076CA4",
"Q  c #146CA2",
"!  c #0573A4",
"~  c #0A73A2",
"^  c #0A74AC",
"/  c #0779A9",
"(  c #0579AD",
")  c #1475A3",
"_  c #1579AA",
"`  c #0571B2",
"'  c #0274B3",
"]  c #037BB3",
"[  c #097AB8",
"{  c #2B7AA5",
"}  c #2977A8",
"|  c #367DA7",
" . c #405E81",
".. c #466A86",
"X. c #4C6B84",
"o. c #526E88",
"O. c #4A738D",
"+. c #58748C",
"@. c #497696",
"#. c #577B96",
"$. c #647D96",
"%. c #4B7DA2",
"&. c #067DC5",
"*. c #037FD0",
"=. c #0881AD",
"-. c #1783AD",
";. c #0B83B6",
":. c #0685B9",
">. c #0B8BBC",
",. c #1887B5",
"<. c #0B94BD",
"1. c #1494BB",
"2. c #1994BA",
"3. c #2C82AC",
"4. c #3785AD",
"5. c #258CB5",
"6. c #3489B5",
"7. c #2896BC",
"8. c #3796BE",
"9. c #2FA1BF",
"0. c #5A829C",
"q. c #69859B",
"w. c #5986A4",
"e. c #4A8CB2",
"r. c #5897BA",
"t. c #688AA4",
"y. c #728DA4",
"u. c #7893A9",
"i. c #6A94B1",
"p. c #789BB5",
"a. c #7CA2BB",
"s. c #0689C7",
"d. c #0B8DC3",
"f. c #0B94C4",
"g. c #0896C8",
"h. c #1594C7",
"j. c #149ACE",
"k. c #1A9BCB",
"l. c #068AD5",
"z. c #0896D7",
"x. c #159BD2",
"c. c #239CC3",
"v. c #229BCB",
"b. c #269BCE",
"n. c #359BC4",
"m. c #19A3C7",
"M. c #05A4DA",
"N. c #18A7D8",
"B. c #07B2DD",
"V. c #17B6DA",
"C. c #26A7CA",
"Z. c #37A6C9",
"A. c #2AB2CE",
"S. c #27A8D6",
"D. c #36ACD6",
"F. c #29B4DB",
"G. c #37B6D8",
"H. c #059BE3",
"J. c #07A9E5",
"K. c #18ACE6",
"L. c #0BB6E7",
"P. c #15B8E7",
"I. c #2CB9E3",
"U. c #36BBE4",
"Y. c #599BC4",
"T. c #4AA4C4",
"R. c #48A8C9",
"E. c #57A9C9",
"W. c #49B9DC",
"Q. c #51B0D3",
"!. c #54B9D8",
"~. c #66A7C8",
"^. c #6BAED1",
"/. c #6CB1D3",
"(. c #74B9D8",
"). c #44BBE4",
"_. c #29CCDE",
"`. c #08CAEB",
"'. c #16C8E9",
"]. c #09D5ED",
"[. c #1BD4EB",
"{. c #0CDDF3",
"}. c #15D2F1",
"|. c #28C8E9",
" X c #37C6E7",
".X c #27D7E9",
"XX c #38D7E8",
"oX c #2FD4F2",
"OX c #0BE4ED",
"+X c #0BE2F4",
"@X c #16E7F3",
"#X c #30E6F0",
"$X c #48C8DC",
"%X c #5CC2DA",
"&X c #65C5DC",
"*X c #73CBDD",
"=X c #47C7E5",
"-X c #4BC5E2",
";X c #4BCAE4",
":X c #58C9E3",
">X c #49D7E8",
",X c #56D5E5",
"<X c #4CDBF1",
"1X c #64CAE3",
"2X c #68CAE3",
"3X c #78C9E3",
"4X c #6AD3E7",
"5X c #79D9EB",
"6X c #7AD7F1",
"7X c #4BE4EC",
"8X c #59E6EC",
"9X c #66E7EC",
"0X c #78E8EC",
"qX c #75EAF1",
"wX c #8299AD",
"eX c #839CB4",
"rX c #89A5BB",
"tX c #92AABF",
"yX c #89ABC3",
"uX c #95ADC2",
"iX c #8FB7CF",
"pX c #99B5C9",
"aX c #A5BBCC",
"sX c #A6BED1",
"dX c #90C5DB",
"fX c #AAC4D7",
"gX c #B6CAD9",
"hX c #B4CFD9",
"jX c #8CCFE9",
"kX c #8ED5E6",
"lX c #82DCEB",
"zX c #AED2E5",
"xX c #BAD6E5",
"cX c #87E7ED",
"vX c #99EAEC",
"bX c #86E9F2",
"nX c #96F0F2",
"mX c #AEEDEE",
"MX c #B7F2F2",
"NX c #C1D2DE",
"BX c #C8DAE6",
"VX c #D1DFE9",
"CX c #C5EBED",
"ZX c #D4E4EC",
"AX c #D9E9EE",
"SX c #CCEDF0",
"DX c #DAEBF2",
"FX c #C9F2F3",
"GX c #D8F2F3",
"HX c #E5EFF4",
"JX c #E5F3F4",
/* pixels */
"wXNXAXAXAXDXJXHXHXHXHXHXDXDXDXAXAXZXVXBXBXBXBXxXgXhXgXfXsXaXpXpXuXuXrXrXeXwXu.u.y.t.q.q.$.#.+.+.o.X.X...b b b c l l z l g g w 7 ",
"wXNXDXAXDXaXq.y.t.t.w.w.w.w.w.w.w.w.w.0.0.#.@.@.@.@.@.@.@.@.@.T T T U U U z z z l g g j g g g h h w h h a a d f f d U U h h q 7 ",
"wXgXDXZXHXrXy 8 8 2 2 2 < - - - - - - - - % % % - - - - & & - - - - - - % % % - - - - - - < < 2 8 8 e e i n m m A J /.w.a a q 7 ",
"u.gXAXZXDXtXU J ) ) _ ^ ^ ~ ~ ~ W Q Q Q Q H H H H H H H H H H H Q Q K Q Q Q Q Q _ _ _ _ _ _ _ -.,.,.2.h.k.k.S.F.c.Q.jX%.a y q 7 ",
"u.gXZXZXDXrXT 4.Q.kXkXkXkXkXkXjXjXjX3X3X3X3X3X(.(./././.^./.~.~.E.E.T.T.T.T.e.8.8.8.8.8.8.7.5.5.5.,.,.2.2.1.c.D.c.W./.E u q q 7 ",
"u.gXZXZXDXrXT 8.3XCXDXHXDXAXAXZXZXBXBXxXxXxXgXgXfXfXsXpXpXuXyXrXrXp.p.u.i.i.t.t.#.#.@.O.O.U U x x k d f f s B B K 5.3.N 9 q 0 7 ",
"u.gXZXZXZXrXT n.3XxXhXCXCXCXxXxXxXzXzXfXfXfXfXsXpXpXiXyXyXyXrXp.p.p.i.i.t.t.w.#.#.#.O.....U U z k j d f M M M M C C r 7 : 5 7 6 ",
"u.gXVXVXZXrXT Z.jXZXzXE.n.n.8.6.} { { R R R Y Y Y Y I P I P I N S N N N N f f f f f f s M B S J K ) _ ,.>.) M a B y + - = : 4 6 ",
"u.gXVXVXZXrXT 9.3XVXCX!.s.g.d.:.] ^ ^ W W G G G G D D D V V V V D D F F D D D D G F F H W ! ^ [ s.g.M.J.N.^ B d S 0 o # = : 4 6 ",
"u.gXVXBXVXrXT Z.3XxXBX!.W.6X3X3X(./.^.~.E.r.r.r.e.e.e.e.e.4.4.| { { { { } R R J J J J K Q ) _ _ ,.k.N.|.XX-.S s S 0 X # = ; : 6 ",
"u.fXBXBXBXa.Y Z.3XBXBX!.!.zXzXzXzXzXfXpXiXpXuXrXrXp.p.u.i.t.w.w.#.@.O...U U z k j h a a s s p n F ! :.S.<X1.F s B 3 . + = ; : 6 ",
"u.fXNXNXBXa.Y Z.*XxXBXQ.Q.zXfXfXsXpXpXuXyXyXyXa.p.u.u.y.t.q.0.#.#.O.O...U U z k k j h d a y u n m H ' m.oX1.A s N , . + = : < 6 ",
"y.fXNXNXBXp.I Z.*XxXxXE.n.jX/.T T E { { { { { R { { { R } } R R R Y J J J J J J J J F H H ~ / / F V W j.|.-.S a B , . + = : < 6 ",
"u.aXgXgXBXp.I 9.&XhXgXr.6.dX^.V W f.j.x.j.j.j.j.j.j.j.j.j.j.j.j.x.x.x.x.x.x.x.j.j.j.x.m.N.N.K.K.m.] W f.F.K N a B , . + = : : 6 ",
"u.aXgXgXxXp.I Z.&XgXgXr.| iX!.' [ A.g.z.s.s.[ ] ] ] ' ' ' ' ' ' ' ' ' ' ' ' ' ' ' ' ] ] [ s.g.z. XV.! d.S.S d y N >   + = < 4 6 ",
"y.aXgXgXhXp.I 9.&XfXgXw.{ /.!.[ ,.4XF.P.K.N.N.j.j.j.j.h.h.h.h.h.h.h.h.h.h.h.h.h.h.j.h.j.j.N.M.d.,XG.! >.S.S w w N >   + ; < 4 6 ",
"y.aXgXgXhXi.P 7.!.fXfXw.R ~.W.:.1.6X X4XbXvXcXcXcXcXlXlXlXlXlXlXlXlXlXlXlXlXlXlXlXlXlXlXcX0XF.f.4XG.W :.C.B q q N ,   + = < 4 6 ",
"y.pXgXgXhXi.S c.%XfXsXw.Y ~.W.:.1.5X=X5X5X=X X XI.S.S.S.S.S.S.S.b.S.S.S.b.b.b.S.S.S.F.U.).cXU.g.4XU.W ;.C.N q q N ,   + = < 4 6 ",
"y.uXfXfXgXi.S c.%XpXaXw.I r.G.d.1.4X).lX,X_.XX XU.I.I.F.F.F.F.F.S.S.S.S.S.S.S.F.F.F.|.P.K.bXW.s.4XG.H =.S.d q 0 N 0   + = < 4 6 ",
"y.uXfXfXfXi.B 7.!.pXaXw.I r.G.d.,.4X).5X,XF.Q.R.R.R.T.T.T.T.T.T.T.T.T.T.T.T.R.R.R.R.R.=XI.bX).s.1XG.G / S.d q 0 N 3   + = < 4 6 ",
"y.uXaXaXfXi.S 7.!.pXpXw.I r.G.d.,.4XU.5X,XN.s.s.[ ` ' ' ' ' ' ' [ ' ` ` ` ` W ` ' [ [ U.I.bXW.:.1XG.G / S.f q 5 f 3   + = < 4 6 ",
"y.uXaXaXsXw.B c.!.uXuX@.I e.G.>._ 4XD.5X,Xx.l.K.H.z.l.l.H.J.H.H.H.H.H.H.l.l.*.l.z.H.l.U.V.5XG.:.1XG.D / C.s 0 , N 0   + ; < 4 6 ",
"t.tXpXpXpXw.M c.Q.yXuX@.I e.D.>._ 1XD.3X,Xj.s.z.P.L.J.J.L.[.'.'.'.'.'.L.J.J.H.J.J.H.l.U.N.5XD.:.2XG.D / v.y 5 , N 0   + ; ; 4 8 ",
"t.rXpXpXpXw.M 7.Q.rXrX@.P e.A.>._ 1XS.2X;Xz.l.z.J.[.[.[..X7X8X8X8X8X7X.X'.[.'.`.J.l.s.U.N.lXD.] 2XG.D / v.y , , f 0   + ; < 4 8 ",
"t.rXtXuXpXw.M 2.R.rXrX@.I %.C.>._ :XS.2X;Xz.l.H.L..X8X9X0XvXMXmXMXmXnX0X8X7X#X.XJ.l.s.U.N.lXD.] 2XG.m / v.y , , f 0   + ; ; 4 8 ",
"t.rXuXuXtXw.M 7.R.a.eX@.P %.C.>._ :Xm.1X;Xz.l.H.L.XXbXMXMXSXGXGXJXGXFXMXmXvXqX.XJ.z.s.D.k.5XD.] 2XD.m ~ v.y , , f 0 . + = ; ; 6 ",
"t.eXtXtXtXw.M 7.R.p.p.O.P E C.>._ :Xk.1X;Xz.l.M.'.7XvXFXFXSXGXAXGXGXFXCXGXFXbXXXL.z.s.D.k.5XD.] 2XD.m ~ v.y > : f 0 . + = ; ; 6 ",
"t.eXrXrXrX#.M 2.R.i.u.T S E C.>.) :Xk.&X-Xz.z.J.|.qXmXMXCXmXcXcXcXcXvXMXFXMXnX<X'.J.s.D.k.5XD.] 2XD.m ~ v.u > : f 0 . + = ; ; 6 ",
"t.eXeXeXrX@.p 2.R.i.u.T S T C.>.) !.h.&X-Xz.z.L.[.qXFXCXmX,X.X[.[._.>X9XmXDXFX8X}.J.s.D.k.5XZ.] 2XD.m ~ v.r > > f 0 . + = 4 4 6 ",
"0.u.wXeXeX@.p 2.Z.t.y.T S Y c.>.) !.h.&X-Xg.z.L..XbXGXSXvXXXqXnXnXvX9XXXmXJXGXqXoXL.l.D.k.5XZ.( 2XD.m ~ v.r * = N 0 . + = 4 6 6 ",
"0.u.wXp.eX@.i 2.Z.t.q.U B I k.>.) W.f.%X-Xz.z.P.XXnXJXGXvX.XnXJXJXGX0XXXmXJXDXbXoXJ.z.D.k.5XZ.( 2XD.m ~ v.9 * * f 0 . + = 4 < 6 ",
"0.y.u.u.wXO.i 2.Z.w.q.U B I 2.>.) !.f.%X-Xz.z.P.XXnXJXGXvX.XnXJXJXGX9XXXmXJXGXbXXXP.j.D.k.lXZ.( 2XD.m H v.9 * * f 0 . + ; 4 < 6 ",
"0.y.u.u.u.O.i 2.n.0.q.U B I 2.>.) !.d.%X-Xz.z.L..X0XGXGXnXXXnXGXGXSX9XXXmXHXFXqX.XL.s.D.k.lXZ.] 1XD.m ~ v.8 * * f 3 . + = ; < 6 ",
"#.y.y.y.y.O.t 2.n.#.#.U B S 2.>.) !.d.%X-Xz.l.B..X0XFXFXvX>X9X9X8X0X9X,XmXGXMX9X'.M.&.D.k.lXD.] 1XD.m ~ v.9 * * f 0 . + = ; < 6 ",
"#.q.q.y.y.U e 2.n.#.#.Z B N 2.>.) !.d.%X-Xl.l.L.|.9XMXMXMX5X,X>XXX>X,XcXmXGXmX<X'.z.&.D.k.lXZ.] 1XD.m ~ v.9 * * f 3 . + = ; < 6 ",
"#.q.q.q.y.U e 2.n.#.+.k B f 2.:.) !.d.%X-Xl.l.z.'.>XvXFXCXMXmXmXmXmXmXMXCXFXbXXXL.z.[ D.k.lXZ.] 1XD.m ~ v.9 & * f 3 . + = ; < 6 ",
"#.q.q.q.q.U e 2.n.@.o.j B s 1.>.) !.s.%X-Xs.*.z.B.XXnXFXFXGXJXJXJXJXGXGXGXFXbX_.M.l.[ D.k.5XD.] 1XD.V ~ c.9 & & s 0 . + = = ; 6 ",
"O.q.q.q.q.U e 2.8.O.o.j B s 1.>.) W.s.%X-Xs.&.l.B.#X7X9XnXMXFXSXAXGXCXmXvX0X8X|.z.s.[ D.k.lXD.] 1XD.V ~ c.9 & & s 0 . + = = ; 6 ",
"O.q.q.$.q.U 8 ,.7.O.X.j B s 1.>.) W.s.%X-Xs.&.l.L.'.'..X7X9XqXcXnXnX0X8X>X.X[.'.H.&.[ D.k.lXD.] 1XD.V ~ c.9 * & s 0 . + = = ; 6 ",
"O.+.$.$.$.z 8 ,.7.U ..d B s 1.>.) W.g.%X-Xl.&.z.J.J.J.L.P.'.[..XXXXX.X'.L.L.J.L.J.l.:.D.k.lXD.:.1XF.V ~ c.9 & & s 0 . + = = ; ; ",
"O.+.#.+.#.k 8 ,.7.U ..d B p 1.d.^ $Xg.:X-Xg.l.H.H.z.z.H.H.J.J.J.J.J.M.M.z.z.l.z.H.z.f.I.N.5XD.s.1XA.D / v.9 = & s 0 X O & & ; ; ",
"X.+.+.+.+.k 8 -.5.U c d S p 1.f._ =Xz.:X;Xx.U.=X).).).).).).).).).U.U.).).W.W.W.U.U.G.I.V.0XG.s.1XA.D / k.9 = & f 0 X O & & ; ; ",
"X.+.+.+.+.k < -.5.U c d S p 1.f._ =Xz.1X$XP. X X XU. XU.I.I.I.I.I.I.I.I.U.I.U. X X|. XI.V.cXG.s.4XG.D / k.9 = - f 0 X O & & = ; ",
"..+.o.o.+.k < -.5.Z z f S p 1.f.-.=Xz.:X0X>X>XXX X X X X X XU.U. X X X X X X X X X X>X>X>XbXD.s.1XG.G / m.e = - f 0 X O # & = = ",
"..o.o.o.o.j < -.5.k z f S n h.g.-.-Xz.G.4X4X4X4X4X4X4X2X2X2X2X2X2X2X2X2X2X2X2X4X4X4X4X4X4X<XS.d.1XG.D / m.t ; ; M 0 X O # # & & ",
"..o.X.X.o.g < -.5.k k s J n f.g.[ -XN.S.V.V.V.V.V.N.N.N.N.N.N.N.N.N.N.N.N.N.N.N.N.N.N.V.F.I.S.>.4XD.D / m.t ; ; B 0 o O # # & & ",
"b X...b X.h < _ ,.j j s F n f.g.[ :X>X;X,X,X;X;X;X;X;X;X;X;X;X;X;X;X;X-X;X;X;X;X;X;X;X;X;X=XU.d.2XD.G / S.i < < B q o + # # & & ",
"....b b ..h < -.,.f d s K i g.z.` >.d.d.d.d.d.>.>.;.;.;.:.;.;.;.;.;.;.;.:.:.:.:.:.>.>.>.>.>.>.:.:XD.G ( m.i 8 6 B q o O O # # # ",
"b ..b b ..g < -.,.s f M K i m.V.m.V.V.V.V.V.V.V.V.V.V.V.V.V.V.V.V.V.V.V.V.V.V.V.V.V.V.V.V.V.V.V.XXm.G ] m.n 9 8 B q o O O + # # ",
"b b c v  .w < -.,.M M D _ n ,.S.=X;X:X$X$X$XG.G.A.A.C.C.m.m.m.m.m.m.m.m.m.m.m.m.m.m.m.m.C.A.A. XW.Z.D ( N.D t e S y o + + + + + ",
"c v l l U w 2 -.,.M m ! ,.J r.iXdXdXdX(./.~.~.Y.Y.r.e.e.4.4.4.4.4.3.3.3.{ { { { { 3.3.3.6.6.8.T.Y.E.3./ N.H n t J y + + + + + + ",
"c l l l z a 8 -.-.A G >.h.c./.(.~.~.~.Y.r.r.e.e.e.e.e.e.| | | | | | | | { { | { { { { { 3.3.3.6.6.n.n.f.P./ A m J u + # + + + O ",
"c l l l z a 8 -.,.H ^ M.'.M.g.] ! G D m n n n i i i t e t t t t t t t t t t t i i n n m D D G ! ] s.g.L.'.<.! G K p * & O O + O ",
"c l l g z a e -.2.( g.P.oX'.L.M.z.>.:.=.( ( ( ( ( ! ! ! ! ! ! ! ! ! ! ! ! ! ! ( ( ] ] :.:.>.d.g.M.J.L.}.#XB.s.^ K s < & O O O O ",
"z l g g k a t -.1.:.B.}.#X#X{.].].].].`.`.`.`.`.`.`.`.`.`.`.`.`.`.`.`.`.`.`.`.`.`.`.].].].].].].].{.+X@X@X`.M.:.) M 2 = O O O O ",
"z l g h j a i ;.j.g.}.@XOXOX{.+X{.{.{.{.{.{.{.{.{.{.{.{.{.{.{.{.{.{.+X{.{.{.{.+X+X+X@X#X#X#X#X#X@X@X+XOXOX@X'.f.;.m 8 < O O + O ",
"z g g h j s n >.x.h.1.<.<.1.1.1.1.>.>.>.>.>.>.>.<.<.<.f.f.f.f.g.f.f.f.f.g.g.g.g.g.g.g.m.C.C.C.m.m.f.f.g.g.m.m.h.;.H t < # + + O ",
"z g g h j s n h.h.F M M M M p p M m A A A F F F H W W W ^ ^ ^ ^ ^ ^ ^ ^ ^ ^ ^ ^ ^ ^ ( ! ! ! ! W G G G W W G G ^ ,._ n 8 & # + O ",
"z g h h j s m 7.-.S j h j j j j N N N B B S J J J K K K L ) ) ) ) ) ) ) ) ) ) ) ) ) ) ) Q K J K K ) ) _ _ -.-.,.h.-.m 8 & # # o ",
"z h h h a u J &XQ.S 1 * @ @ $ * * * * > > : : 1 1 1 7 7 1 1 1 1 7 7 1 1 1 1 1 7 7 7 7 0 7 7 7 7 7 9 9 r u s p B K K J 9 & & # O ",
"k g h h a I /.jXE.p % o . X X o o o o + + + % - - - - - - - - - - - - - - - - - - - - % % & & - % % % % % - - 2 8 n S r - & # O ",
"k g h a a f I P d : $ O O + & * = : 7 9 r i p n m A A F F H H H H H H H H H F F A A A n n n p r r 9 8 6 < ; : 6 8 9 r 8 ; & & + ",
"k g a a u 9 6 ; - & + O O + & - = < 8 9 e n n m F H H W ! ( / / ( ( ( ( ( ! ! H H F F m m n i t e 9 8 6 < ; ; ; ; < 6 7 ; - & # ",
"k h y 9 6 6 ; = & # O O O O # & - = < 6 9 e i n n m A D F H H H H H W H F F D D m m n i i e e 9 8 < ; ; - & & & & & = : : : = + "
};
