/* XPM */
static char *ghost[] = {
/* columns rows colors chars-per-pixel */
"64 64 211 2 ",
"   c #0C060B",
".  c #0C0B10",
"X  c #130F12",
"o  c #131016",
"O  c #15141A",
"+  c #19171B",
"@  c #241A1E",
"#  c #1D1B21",
"$  c #2D1E23",
"%  c #29252B",
"&  c #31262B",
"*  c #2B2B34",
"=  c #262832",
"-  c #372E35",
";  c #3B383E",
":  c #3A363D",
">  c #2E3545",
",  c #393D4B",
"<  c #363A46",
"1  c #3B4152",
"2  c #3D4648",
"3  c #4A464C",
"4  c #484B57",
"5  c #574F58",
"6  c #59565B",
"7  c #51484D",
"8  c #585C67",
"9  c #4C5768",
"0  c #5C6978",
"q  c #62606C",
"w  c #6F666B",
"e  c #646B76",
"r  c #717478",
"t  c #776D71",
"y  c #807778",
"u  c #D67050",
"i  c #9A8878",
"p  c #A38F7F",
"a  c #BC8B7E",
"s  c #CC8C7A",
"d  c #636F81",
"f  c #627283",
"g  c #6A7A8C",
"h  c #747B88",
"j  c #707F93",
"k  c #837780",
"l  c #77828D",
"z  c #6F8092",
"x  c #738394",
"c  c #7D8C9C",
"v  c #798490",
"b  c #7F919F",
"n  c #7B8DA2",
"m  c #7F91A4",
"M  c #8A878B",
"N  c #9F8F82",
"B  c #938D8F",
"V  c #9D9082",
"C  c #908F94",
"Z  c #86909E",
"A  c #8B929E",
"S  c #919194",
"D  c #99969A",
"F  c #A69689",
"G  c #A69C97",
"H  c #A28382",
"J  c #ADA49D",
"K  c #A9A099",
"L  c #B3A496",
"P  c #8396AB",
"I  c #8A9BAD",
"U  c #8795A7",
"Y  c #9C9EAA",
"T  c #9A9CA5",
"R  c #899CB2",
"E  c #A49EA2",
"W  c #9BA3AE",
"Q  c #8EA1B4",
"!  c #8FA4B8",
"~  c #91A4B5",
"^  c #98A7B7",
"/  c #ABA4A3",
"(  c #A4A4A9",
")  c #ADA9AB",
"_  c #ABA7A7",
"`  c #B3ABA5",
"'  c #B3ADAB",
"]  c #BAAAA3",
"[  c #B5B1AD",
"{  c #BAB3AC",
"}  c #ACADB4",
"|  c #A3ABB5",
" . c #B6AFB0",
".. c #AFB2BA",
"X. c #B5B2B3",
"o. c #B9B5B4",
"O. c #BCB9B5",
"+. c #B3B5BA",
"@. c #BAB6B9",
"#. c #BCBBBC",
"$. c #B7B9BB",
"%. c #EA9E85",
"&. c #DEA999",
"*. c #EFA182",
"=. c #F2B99C",
"-. c #C2BBB5",
";. c #C1BDBD",
":. c #C1B8AD",
">. c #EDB5A2",
",. c #C4C1BD",
"<. c #CAC4BB",
"1. c #CDC8BD",
"2. c #D7C1BD",
"3. c #EEC0AD",
"4. c #EAC5BA",
"5. c #F1C9B6",
"6. c #F6CDB3",
"7. c #A8B9C8",
"8. c #BBBCC1",
"9. c #B3BEC9",
"0. c #B4BBC3",
"q. c #C1BEC2",
"w. c #ADC0CC",
"e. c #BCC0C5",
"r. c #BAC5CD",
"t. c #B9CAD8",
"y. c #C4C3C4",
"u. c #CBC7C2",
"i. c #CDC9C5",
"p. c #C4C5CB",
"a. c #C9C6C9",
"s. c #C6C9CC",
"d. c #CBCBCC",
"f. c #D0CECD",
"g. c #D1C2C5",
"h. c #CED0CF",
"j. c #D2D1CD",
"k. c #CCCDD3",
"l. c #C6C9D1",
"z. c #D1CDD2",
"x. c #CED0D5",
"c. c #CED3DB",
"v. c #D2D3D5",
"b. c #D3D5DC",
"n. c #D5D9DE",
"m. c #DADBDC",
"M. c #D9D7D6",
"N. c #F0DFD7",
"B. c #ECD7CC",
"V. c #E1E1DC",
"C. c #F6E0D0",
"Z. c #CED8E3",
"A. c #D4D7E0",
"S. c #D6DBE2",
"D. c #DADDE3",
"F. c #DBDFE8",
"G. c #E3DFE0",
"H. c #DDE1E5",
"J. c #DDE3EA",
"K. c #DFE8EF",
"L. c #E2E3E5",
"P. c #E2E6EB",
"I. c #E3E9EE",
"U. c #E9EBEE",
"Y. c #EBE3E4",
"T. c #E4ECF3",
"R. c #E8EFF5",
"E. c #E9EEF4",
"W. c #E9EFF6",
"Q. c #EAEEF3",
"!. c #E3E7F0",
"~. c #E7F0F7",
"^. c #E7F0F6",
"/. c #E7F0F7",
"(. c #EEF1F3",
"). c #E9F0F6",
"_. c #E8F0F6",
"`. c #EAF1F7",
"'. c #EAF1F6",
"]. c #EAF0F6",
"[. c #EDF1F5",
"{. c #ECF1F6",
"}. c #E8F1F8",
"|. c #E9F1F8",
" X c #E9F2F9",
".X c #E9F2F8",
"XX c #EBF2F8",
"oX c #EAF3FA",
"OX c #EEF5F9",
"+X c #ECF4FA",
"@X c #F0F1F3",
"#X c #F3F4F6",
"$X c #F4F5F7",
"%X c #F1F4F6",
"&X c #F2F6FA",
"*X c #F5F7F9",
"=X c #F1F6FB",
"-X c #F5F8FA",
";X c #F6F9FC",
":X c #F4FAFD",
">X c #F8F9FB",
",X c #F9FAFC",
"<X c #FAFBFD",
"1X c #FBFCFE",
"2X c #F9FCFD",
"3X c #FDFDFF",
"4X c #FCFDFE",
"5X c #FEFEFF",
"6X c #FDFDFE",
"7X c #FBFDFE",
"8X c #F4EFEB",
/* pixels */
"T.!.!.!.!.!.!.K.!.!.!.!.!.!.!.!.!.!.!.!.T.T.T.T.T.!.T.T.T.T.T.T.T.T.T.T.T.T.T.T.T.T.T.T.T.T.T.T.T.T.T.T.T.T.T.T.T.T.T.T.T.T.R.R.",
"!.!.!.!.K.K.K.K.I.I.I.I.I.I.I.I.I.I.!.I.!.I.I.I.I.I.!.!.!.!.!.!.!.!.!.!.!.!.T.!.T.T.T.T.T.T.T.T.T.T.T.T.T.T.T.T.T.T.T.R.T.T.R.R.",
"!.!.!.!.K.K.K.I.I.I.I.I.I.I.I.I.I.I.I.I.I.I.I.I.I.I.I.!.!.!.T.!.!.T.!.!.T.!.T.T.T.T.T.T.T.T.T.T.T.T.T.T.T.T.T.T.T.T.R.R.R.R.R.R.",
"T.!.!.!.!.K.K.I.I.I.I.I.I.I.I.I.!.!.!.!.!.!.I.!.!.!.!.!.!.!.!.!.T.!.!.T.T.T.T.T.T.T.T.T.T.T.T.T.T.T.T.T.T.T.T.T.T.T.T.R.R.R.R.R.",
"T.!.!.!.!.!.!.!.!.I.I.!.!.!.!.!.!.!.!.!.!.!.!.!.!.!.!.T.!.T.XX=X1X>X).T.T.T.T.T.T.T.T.T.T.T.T.T.T.T.T.T.T.T.T.T.T.T.T.T.T.T.R.R.",
"T.!.!.!.!.!.!.!.!.!.!.I.!.!.!.!.T.!.!.!.!.!.!.!.!.!.T.T.T.).[.(.(.,X1X).T.T.T.T.T.T.T.T.T.T.T.T.T.T.T.T.T.T.T.T.T.R.R.T.T.T.R.R.",
"T.T.!.!.!.!.!.!.!.!.!.!.!.T.!.T.T.T.T.!.!.!.!.!.!.T.T.T.).).).U.Q.[.>X&XT.T.T.T.T.T.T.T.T.T.T.T.T.T.T.T.T.T.T.T.T.T.T.T.T.T.R.).",
"T.!.!.!.!.T.!.!.T.T.T.T.T.T.!.!.T.T.T.T.!.!.!.!.T.T.T.T.v.M.m.T.U.(.1XXXT.T.T.T.T.T.T.T.T.T.T.T.T.T.T.T.T.T.T.R.T.T.T.T.T.T.R.R.",
"T.T.T.T.!.!.!.!.!.T.!.!.!.!.!.!.!.!.!.!.T.T.T.T.T.T.T.P.k.d.j.L.L.U.-XT.T.T.T.T.T.T.T.T.T.T.T.T.T.T.T.T.T.T.T.T.~.~.~.T.T.~.R.R.",
"T.T.T.T.!.!.T.!.!.!.!.T.!.!.!.!.T.!.!.T.T.T.T.T.T.T.T.v.v.v.L.U.U.&X,XOXT.T.T.T.T.T.T.T.T.T.T.T.T.T.T.T.T.T.T.T.T.T.R.R.T.R.R.).",
"T.T.T.T.T.T.T.T.T.T.T.T.!.T.T.T.T.T.T.T.T.T.T.T.).OX&Xm.M.M.L.L.Q.*X,X4X-XOX[.T.T.T.T.T.~.T.T.T.T.T.T.T.T.T.T.T.R.R.).).~.R.R.).",
"T.T.T.T.T.T.T.T.T.T.T.T.T.T.T.T.T.T.T.T.T.T.).;X4X4X4X4X4X4X4X1X4X4X4X4X4X4X4X-XXXT.T.~.~.~.T.T.~.~.~.~.T.T.~.R.~.).).).R.R.).).",
"T.T.T.T.T.T.T.T.T.T.T.T.T.T.T.T.T.T.T.T.).=X;X-X;X;X,X>X,X,X1X1X4X4X4X4X4X4X4X4X4X;X).T.T.T.T.T.~.~.T.T.T.~.~.}.}.~.~.R.R.R.).).",
"T.T.T.T.T.T.T.T.T.T.T.T.T.T.T.T.T.T.T.).&X;X*X&X&X-X-X,X>X>X,X,X,X1X1X4X4X4X4X4X4X4X4XOX~.T.~.T.~.~.~.~.~.~.~.~.XXXX~.).).).).).",
"T.T.T.T.T.T.T.T.T.T.T.T.T.T.T.T.T.R.&X&X[.).Q.I.Q.(.[.%X*X*X-X-X-X-X,X>X1X1X4X4X4X4X4X4X;X~.R.R.~.~.~.~.~.~.}.XXXXXXXX).).).).).",
"T.T.T.T.T.T.T.T.T.T.T.T.T.T.T.T.T.T.Q.Q.(.Q.[.(.Q.[.[.@X$X@X$X$X*X*X>X,X>X,X,X4X4X4X4X4X4X-XXXXXXX).).~.XXXXXXXXXX).XXXXXX).).XX",
"T.T.T.~.T.T.T.T.T.T.T.T.T.T.T.T.).&XOXR.I.I.U.L.P.U.Q.Q.[.Q.@X@X$X$X*X*X-X>X>X>X,X4X4X4X4X4X=X).XX).XXXXXXXXXXXXXXXX).XXXX).XXXX",
"T.T.~.~.~.T.T.T.T.T.T.T.T.T.T.T.J.D.S.H.P.P.I.L.P.I.U.U.(.Q.(.U.@XU.$X@X$X$X*X*X*X,X,X,X4X4X4XOX).XXXXXX).).).XXXXXXXXXXXXXXXXXX",
"}.T.~.~.~.T.T.T.T.T.T.T.T.T.T.!.J.J.S.M.b.v.P.P.D.P.P.U.U.Q.U.(.U.Q.Q.@X$X@X$X4X4X>X,X1X4X4X4X,XXXXXXXXX).).).XXXXXXXXXXXXXXXXXX",
"XX~.}.}.}.~.T.T.T.~.~.T.T.T.T.S.l.s.b.n.S.I.} w #.P.D.I.L.Q.L.(.I.Q.[.U.[.(.P.t D -X1X>X,X,X4X4X-X).XXXXXXXXXXXXXXXXXXXXXXXXXX+X",
"XX}.}.XX}.T.T.~.).XXXX~.T.~.J.D.D.n.b.k.M.M   @ X.H.D.L.P.P.m.P.G.D.Q.P.U.U.D.7   k ,X*X,X4X4X4X,X+XXXXXXXXXXXXX+X+X+X+XOX+X+XOX",
"XXXXXXXXXX}.}.}.XXXXXX).XXT.A.p.p.k.n.S.J.; & ( S.F.H.L.I.U.T.Q.Q.Q.Q.Q.Q.U.Q.m.t $ m.4X%X-X,X1X4XOX+X+XXXXX+X+XOXOXOXOXOXOXOXOX",
"XXXXXXXXXXXXXXXXXXXXXXXXXX!.D.n.k.p.q.#.X.y M X.@.y.a.-.f.v.v.v.M.m.m.D.L.M.D.G.m.y.Q.*X-X,X4X4X4X;XXXOXOXOXOXOXOXOXOXOXOXOXOXOX",
"+XXXXXXXXXXXXXXXXXXXXXXXXXJ.l.p.c.b.b.k.y.q.k.k.D.n.P.S.P.I.I.I.[.I.[.Q.[.R.[.P.[.[.;X&X-X-X-X-X,X1XOXOXOXOXOXOXOXOXOXOXOXOXOXOX",
"+XXX+X+X+X+X+X+XXXXXXX+XXXD.k.8.#.o.o.X.' ' ) B B E q.;.k.d.m.z.S.z.m.a.v.' D X.a.m.I.Q.[.&X-X1X1X1XOXOXOXOXOXOXOXOXOXOXOXOXOXOX",
"OX+X+X+X+X+X+X+X+X+X+X+XXXA.k.k.k.k.s.y.p.X.7 X 8 Y E z.v.v.M.m.S.L.L.I.8.% : Z.M y.2X&X-X-X-X-X;X1X=XOXOXOXOXOXOXOXOXOXOXOX=X=X",
"OX+X+X+X+X+X+X+X+XOX+X+XXXA.p.#.@.y.q.y.p.8 . . h W q b.v.D.D.H.P.F.F.b.4 . + % 2 r L.U.Q.[.&X-X,X1X=XOXOXOXOXOX=X=XOXOXOXOX=X=X",
"OX+X+X+X+X+X+X+XOXOX+X+XXXF.n.c.k.;.#.X.( * o O o # < E q.k.y.k.y.v.k.G # O O O % * n.;X&X;X-X-X=X;X=XOX=X=X=X=X=X=X=X=X=X=X=X=X",
"OX+XOX+X+X+X+XOXOXOXOXOXXXS.k.s.k.k.k.k.8., o o o + % 8.J.P.D.I.S.I.P.p.* # o + # 4 S.[.Q.Q.[.&X=X2X;X=X=X=X=X=X=X=X=X=X=X=X=X=X",
"OX+XOXOXOXOXOXOXOXOXOXOXOX!.A.k.y.@.@. .' q > * = = 3 @.b.k.k.v.z.v.s.k.6 > , , 1 A U.Q.[.&X=X=X;X2X=X=X=X=X=X=X=X=X=X=X=X=X=X;X",
"OXOXOXOXOXOXOXOXOXOXOX+XOXT.S.S.S.b.c.-.a H 5 , , 4 S y.k._ b.q.b._ y.@.E q 4 4 k z.N.8X[.[.+XOX=X2X=X=X=X=X=X=X=X=X=X=X=X=X=X=X",
"OXOXOXOXOXOXOXOXOXOXOXOXOX+XJ.b.b.v.b.&.u s ] T Y p.D.J.l.- ) b.( - s.J.S.A.8.y.P.N.6.C.U.Q.OX&X;X:X2X2X2X2X;X2X2X2X2X2X2X2X=X=X",
"OXOXOXOXOXOXOXOXOXOXOXOXOX=XT.D.S.n.M.>.*.%.2.D.d.S.y.b.@.& @ 5 @ : k.k.n.z.F.m.M.3.=.6.8X+X[.&X=X=X=X=X=X=X2X2X=X=X=X=X=X=X=X=X",
"OXOXOXOXOXOXOXOXOXOXOXOXOX=XOXJ.b.c.k.g.4.4.g.s.y.v.a.b.y.} 5 % 3 +.M.c.n.v.L.m.G.4.6.N.[.[.[.=X;X;X;X;X=X=X2X2X=X=X=X=X=X=X=X;X",
"=XOXOXOX=X=X=X=X=X=X=XOXOX=X=XXXJ.S.S.S.S.S.D.S.D.S.D.D.S.J.n.k.n.F.H.J.I.J.I.T.T.P.Y.Q.XX[.OX;X;X;X;X;X;X;X;X;X;X;X;X=X=X=X;X;X",
"=XOXOX=X=X=X=X=X=X=X=X=X=X=X=X=XT.D.S.b.n.v.b.k.S.k.n.k.x.n.a.D.k.S.M.D.S.J.H.P.P.I.T.R.).+X;X1X2X2X2X2X2X2X2X2X2X;X;X;X;X;X;X;X",
"=XOX=X=X=X=X=X=X=X=X=X=X=X=X=X=X;X).D.D.D.S.S.S.S.S.S.n.S.b.D.S.S.D.D.J.J.J.I.I.I.R.R.).XX=X2X2X2X2X2X2X2X2X2X2X2X2X2X;X;X;X2X2X",
"=X=X=X=X=X=X=X=X=X=X=X=X=X;X2X2X;X2XD.9.c.S.D.D.S.b.c.k.k.p.b.l.b.k.c.n.J.J.!.T.T.T.J.Z.K.2X1X1X1X2X2X2X1X2X2X1X1X1X2X2X2X2X2X2X",
"=X=X=X=X=X=X=X=X=X=X=X=X=XOX!.D.v.a.+.v c Z Y ( } +.+.( D S C S M C D | +.0.e.0.| ^ 9.w.D.OX1X4X4X4X1X2X2X2X1X1X1X1X2X2X2X2X2X2X",
"=X=X=X=X=X=X=X=X=X=X=X=XI.d.,.O.' ` G A z 0 f 8 e 6 6 r v h 8 e 8 v I Z z g b c ~ Q t.Z.H.Q.Q.&X;X4X4X1X1X1X1X1X1X1X1X2X2X2X2X1X",
";X=X=X=X=X=X=X=X=X=X2XI.s.y.{ { { o.` ) U c x g d 9 h U I I n m g m ! 7.7.Q ^ 7.9.t.r.n.H.Q.U.(.U.*X1X4X4X1X1X1X1X1X2X1X1X1X1X1X",
";X=X=X=X=X=X=X=X=X2XOXb.,.;.o.;.o.#.[ o./ } W Z x j U ! f > g R x 4 0 n t.7.9.r.c.J.n.M.m.L.L.R.Q.(.Q.1X4X4X4X1X1X1X1X1X1X1X1X1X",
"=X=X=X=X;X=X=X=X=X2XT.c.y.a.y.y.y.;.O.[ ' o.8.X.+.Y ! n , f P U n x 1 f t.c.H.J.T.[.Q.L.L.H.L.L.P.Q.Q.&X>X4X4X4X4X1X1X1X1X1X1X1X",
";X=X=X;X=X=X=X=X=X2XXXS.b.a.k.y.y.-.d.y.q.#.X.` ' K ~ n f I ^ ( U I P ~ c.M.I.I.[.&X&XU.%X(.U.P.P.I.[.OX-X4X4X4X4X4X1X1X1X1X1X1X",
"=X=X=X=X=X=X=X=X=X=X=XI.S.x.c.d.v.Q.).y.X.@.#.#.X.' | ! I I 0._ ..I P 7.I.I.[.).&X&X&X[.U.>X,X[.(.Q.[.=X1X4X4X4X4X1X1X1X4X1X1X4X",
"=X=X=X=X=X=X=X=X=X=X=X=XOX).).OX2X).h.y.y.o.` X.J X./ W ^ 9.#.#.#.} R t.U.L.(.U.[.;X;X&XU.U.*X4X4X,X,X4X4X4X4X4X4X1X1X1X4X4X4X4X",
";X=X=X=X=X=X=X=X=X=X=X=X;X2X2X2XJ.d.y.#.O.#.#.#.@.X./ X.' y.) @.' y.b.I.(.U.OX&X&X&X&X&X&XV.L.&X4X4X4X4X4X4X4X4X4X4X1X4X4X4X4X4X",
"=X=X=X=X=X=XOXOXOXOX=X=X=X=X=X=Xb.-.y.y.#.' o.' ` X.X.#.y.k.y.d.a.v.H.P.U.[.V.Q.(.%X1X,X&XU.L.[.4X4X4X4X4X4X4X4X4X4X4X4X4X4X4X4X",
"=X=XOXOXOXOXOXOXOXOXOXOXOXOXOX).k.O.O.#.;.y.#.o.@.o.;.;.M.a.v.d.M.m.H.[.U.-XL.(.;X-X-X,X1X-X(.-X4X4X4X4X4X4X4X4X4X4X4X4X4X4X4X4X",
"=XOXOXOXOXOXOXOXOX+X+X+XOXXXOXT.k.#.@.o.O.k.y.-.;.y.a.n.P.m.D.m.H.I.L.U.[.-X;X&X(.&X%X-X4X1X;X,X4X4X4X4X4X4X4X4X4X4X4X4X4X4X4X4X",
"=XOXOXOXOXOX+X+X+X+XXXXXXXXXT.T.n.y.y.y.s.b.v.x.d.d.y.D.I.U.L.L.m.L.U.L.Q.&X-X,X-X,X1X-X,X,X,X4X4X4X4X4X4X4X4X4X4X4X4X4X4X4X4X4X",
"OXOXOXOX+XXXXXXXXX}.~.T.T.!.K.J.D.c.b.b.S.v.b.D.D.M.D.I.I.Q.Q.Q.I.Q.Q.(.).&X[.-X-X;X=X-X1X4X4X4X4X4X4X4X4X4X4X4X4X4X4X4X4X4X4X4X",
"OXOX+XXXXXXXXX}.T.T.T.!.J.J.S.b.x.k.s.p.y.[ o.x.H.F.J.D.v.H.I.U.(.U.U.I.&XU.I.[.&X&X;X=X;X4X4X4X4X4X4X4X4X4X4X4X4X4X4X4X4X4X4X4X",
"OX+X+XXX}.T.~.T.T.!.J.J.D.b.x.s.e.#.X.' ` J F V J y.y.u.i.d.n.L.I.T.R.R.U.m.M.j.M.L.U.[.&X;X1X4X4X4X4X4X4X4X4X4X4X4X4X4X4X4X4X4X",
"OXXXXXXX}.T.T.T.!.J.J.n.k.p.e.#.X.X.' ' ` J G N i i F K ` { -.<.1.u.u.u.<.<.1.j.M.H.P.I.T.[.=X;X1X4X4X4X4X4X4X4X4X4X4X4X4X4X4X4X",
"OXXXXXXX}.T.T.!.!.J.D.c.p.8.+.X.X.[ ' ' ` ` J K G F N i i p F F L L ] :.<.i.M.m.H.H.P.P.I.T.+X=X;X;X4X4X4X4X4X4X4X4X4X4X4X4X4X4X",
"OXXXXX}.).T.T.T.!.J.J.S.k.p.8.$.X.X.' ' ' ` ` ` ` ` ` { { { { -.-.,.u.f.M.v.M.m.H.P.I.Q.R.+XOX=X=X;X1X4X4X4X4X4X4X4X4X4X4X4X4X4X",
"OXXXXXXX~.T.T.T.!.I.J.H.S.b.x.l.p.y.#.#.o.X.X.[ [ [ { O.-.,.i.f.v.v.j.j.j.v.v.m.H.T.).OXOXOX=X=X=X;X2X1X4X4X4X4X4X4X4X4X4X4X4X4X",
"OXXXXX).T.T.T.T.!.I.I.J.J.D.S.n.n.c.x.k.k.s.s.y.y.y.y.y.y.d.v.n.D.D.D.D.D.H.J.I.T.).OX=X=X=X=X=X;X;X1X1X4X4X4X4X4X4X4X4X4X4X4X4X",
"OXXXXXXXR.R.R.T.T.!.I.I.P.J.H.D.D.D.S.S.S.S.n.n.n.n.n.n.D.D.H.P.I.T.T.T.T.Q.R.).+XOX=X=X=X=X=X;X;X2X1X4X4X4X4X4X4X4X4X4X4X4X4X4X",
"OXXX+X+X[.).R.R.T.T.T.I.I.I.P.J.J.J.H.H.H.H.J.J.J.J.J.P.P.I.I.T.T.Q.R.R.R.[.+XOXOX&X=X=X=X=X;X;X2X1X1X1X1X1X4X4X4X4X4X4X4X4X4X4X",
"OX+X+X+X+X[.R.R.R.T.T.T.I.I.I.P.P.J.J.J.J.J.J.I.I.I.I.I.I.I.T.T.Q.R.).).[.+X+XOX&X&X&X=X=X;X;X1X1X1X1X1X1X1X1X4X4X4X1X1X1X4X1X4X",
"OXOXOX+X+X[.).R.R.R.T.T.T.T.I.I.I.I.I.I.I.I.I.I.I.I.I.I.T.T.T.Q.R.R.[.[.+XOXOX&XOX&X=X=X;X;X2X1X1X1X1X1X4X4X4X4X4X4X4X1X1X1X4X4X",
"=XOX=X&XOX+X+X+X).R.R.R.Q.Q.T.T.T.T.I.I.I.I.T.T.I.T.T.T.Q.R.R.T.R.[.[.+XOX&X&X&X=X=X;X;X;X2X1X1X1X1X4X4X4X4X4X4X4X4X4X4X4X4X4X4X"
};
