/* XPM */
static char *owl[] = {
/* columns rows colors chars-per-pixel */
"64 64 235 2 ",
"   c #352D17",
".  c #451D15",
"X  c #4A331E",
"o  c #563629",
"O  c #683B36",
"+  c #6B4428",
"@  c #6B4E34",
"#  c #756A29",
"$  c #7A4946",
"%  c #715348",
"&  c #795A52",
"*  c #7B6258",
"=  c #766D71",
"-  c #8F5C39",
";  c #836938",
":  c #B26D3D",
">  c #DB6A37",
",  c #CB7D3F",
"<  c #E36730",
"1  c #804F4C",
"2  c #8B544A",
"3  c #874E50",
"4  c #8E4D51",
"5  c #8D5353",
"6  c #8A5957",
"7  c #925455",
"8  c #935A55",
"9  c #935659",
"0  c #945B5B",
"q  c #995D5D",
"w  c #956E48",
"e  c #94615E",
"r  c #9B625E",
"t  c #9D6858",
"y  c #A26D4C",
"u  c #B46D4F",
"i  c #B67647",
"p  c #A46854",
"a  c #A87657",
"s  c #B57A58",
"d  c #8B5F62",
"f  c #965E61",
"g  c #995F62",
"h  c #876966",
"j  c #956262",
"k  c #9B6364",
"l  c #9B6966",
"z  c #9C6668",
"x  c #926F6C",
"c  c #9D6C6B",
"v  c #8A7468",
"b  c #9C756B",
"n  c #8D7A73",
"m  c #9B7673",
"M  c #A56A66",
"N  c #A16C6C",
"B  c #A4716E",
"V  c #B47F61",
"C  c #A26E71",
"Z  c #A47373",
"A  c #A97575",
"S  c #A87877",
"D  c #A57A7A",
"F  c #AA7C7C",
"G  c #B07C7A",
"H  c #CA6F44",
"J  c #C87C49",
"K  c #C37D63",
"L  c #9D8E38",
"P  c #A8983D",
"I  c #B8A53F",
"U  c #B3944C",
"Y  c #B98659",
"T  c #968F70",
"R  c #9B867B",
"E  c #A88462",
"W  c #B78966",
"Q  c #AB8F70",
"!  c #B3867E",
"~  c #BC9476",
"^  c #B7A175",
"/  c #CC834C",
"(  c #D8874B",
")  c #D88B54",
"_  c #C49B59",
"`  c #DE9157",
"'  c #E48C48",
"]  c #E5974B",
"[  c #E28E54",
"{  c #E59354",
"}  c #E4945B",
"|  c #E9965B",
" . c #E59859",
".. c #E99A5D",
"X. c #D0B54D",
"o. c #D1AC55",
"O. c #D8B657",
"+. c #E9B54B",
"@. c #C58B64",
"#. c #C79568",
"$. c #CD946B",
"%. c #D59768",
"&. c #D49A6D",
"*. c #C48F73",
"=. c #CA9977",
"-. c #D59D76",
";. c #E79C64",
":. c #E99B62",
">. c #D1AB6B",
",. c #C6A37A",
"<. c #DCA276",
"1. c #DAA87A",
"2. c #E5A366",
"3. c #E9A36C",
"4. c #E5A578",
"5. c #E4AA7B",
"6. c #EBAC7B",
"7. c #E8B47A",
"8. c #D6C448",
"9. c #DAC45C",
"0. c #EACA4C",
"q. c #EBD44D",
"w. c #EFD94E",
"e. c #F4DA4A",
"r. c #F3DC4B",
"t. c #E3C454",
"y. c #E8CA58",
"u. c #ECD454",
"i. c #F4D756",
"p. c #F3DC51",
"a. c #F9E24D",
"s. c #F9E450",
"d. c #AC7E81",
"f. c #9C8881",
"g. c #AD8282",
"h. c #AB8B86",
"j. c #B48484",
"k. c #B58A85",
"l. c #B38B8B",
"z. c #B98B89",
"x. c #A6948B",
"c. c #B89489",
"v. c #AA9D97",
"b. c #BB9494",
"n. c #BB9997",
"m. c #B5A290",
"M. c #B9A49B",
"N. c #BF9FA0",
"B. c #BAAAA5",
"V. c #BBB0AC",
"C. c #C49888",
"Z. c #C19591",
"A. c #C29E9D",
"S. c #CDAA84",
"D. c #D8AA86",
"F. c #D7B68A",
"G. c #C9AC96",
"H. c #D9B694",
"J. c #DBBD94",
"K. c #E4AC82",
"L. c #EBAD83",
"P. c #EBB384",
"I. c #E3B28C",
"U. c #ECB48B",
"Y. c #EABA88",
"T. c #F0B88B",
"R. c #E5B895",
"E. c #EDBC93",
"W. c #EBBE99",
"Q. c #F1BE95",
"!. c #C39EA0",
"~. c #C7A8A4",
"^. c #CAADAC",
"/. c #D0B3A7",
"(. c #D6BAA7",
"). c #CBB4B4",
"_. c #CCBBB8",
"`. c #D4BAB7",
"'. c #E2BDA3",
"]. c #DCC199",
"[. c #E8C488",
"{. c #E3C49B",
"}. c #E9C798",
"|. c #EDC29D",
" X c #ECCC9D",
".X c #F2C49C",
"XX c #EED098",
"oX c #DBC3A3",
"OX c #CDC3BD",
"+X c #D9C6BA",
"@X c #ECC4A3",
"#X c #E5CBA5",
"$X c #EDCCA4",
"%X c #E4C6A8",
"&X c #ECCBAB",
"*X c #F2C9A6",
"=X c #E9D1A7",
"-X c #EDD4AB",
";X c #ECCDB2",
":X c #E3C9BF",
">X c #ECD6B4",
",X c #EED3BA",
"<X c #F1D4B1",
"1X c #F1D6B7",
"2X c #F2DAB2",
"3X c #F3D6BB",
"4X c #D7C6C5",
"5X c #D2CAC6",
"6X c #D6CBCA",
"7X c #DBCCCB",
"8X c #DCD3CE",
"9X c #DDD5D2",
"0X c #E4C9C3",
"qX c #E7D7C9",
"wX c #F3DBC4",
"eX c #F2DFC9",
"rX c #E2D5D3",
"tX c #E4D9D7",
"yX c #E4DCDA",
"uX c #F1E0C6",
"iX c #F4E4CB",
"pX c #EAE3DD",
"aX c #F6E8D8",
"sX c #ECE5E2",
"dX c #EDEAE6",
"fX c #F5ECE3",
"gX c #F2ECEB",
"hX c #F5F1ED",
"jX c #FAF3EB",
"kX c #FBF5E8",
"lX c #F5F4F1",
"zX c #F9F6F3",
"xX c #FBFAF5",
"cX c #FFFFFC",
"vX c white",
/* pixels */
"vXvXvXvXvXvXvXvXvXvXvXvXvXvXvXvXvXvXvXvXvXvXvXvXvXvXvXvXvXvXvXvXvXvXvXvXvXvXvXvXvXvXvXvXvXvXvXvXvXvXvXvXvXvXvXvXvXvXvXvXvXvXvXvX",
"vXvXvXvXvXvXvXvXvXvXvXvXvXvXvXvXvXvXvXvXvXvXvXvXvXvXvXvXvXvXvXvXvXvXvXvXvXvXvXvXvXvXvXvXvXvXvXvXvXvXvXvXvXvXvXvXvXvXvXvXvXvXvXvX",
"vXvXvXvXvXvXvXvXvXvXvXvXvXvXvXvXvXvXvXvXvXvXvXvXvXvXlXlXxXgXvXvXvXvXvXvXvXvXvXvXvXvXvXvXvXvXvXvXvXvXvXvXvXvXvXvXvXvXvXvXvXvXvXvX",
"vXvXvXvXvXvXvXvXvXvXvXvXvXvXvXvXvXvXvXvXvXvXvXsX4X8XyX9X_.D ^.^.4XtXgXvXvXvXvXvXvXvXvXvXvXvXvXvXvXvXvXvXvXvXvXvXvXvXvXvXvXvXvXvX",
"vXvXvXvXvXvXvXvXvXvXvXvXvXvXvXvXvXvXvXvXvXsX4Xl.0 A d.z f 7 5 j j k F 4XrXvXvXvXvXvXvXvXvXvXvXvXvXvXvXvXvXvXvXvXvXvXvXvXvXvXvXvX",
"vXvXvXvXvXvXvXvXvXvXvXvXvXvXvXvXvXvXxXxX7Xl.j q 9 9 9 7 0 7 7 7 5 7 7 0 k.sXgXvXvXvXvXvXvXvXvXvXvXvXvXvXvXvXvXvXvXvXvXvXvXvXvXvX",
"vXvXvXvXvXvXvXvXvXvXvXvXvXvXvXvXvXxXxX8Xg.g.z 0 9 9 q 7 7 5 4 4 8 8 7 4 7 d.).9XvXvXvXvXvXvXvXvXvXvXvXvXvXvXvXvXvXvXvXvXvXvXvXvX",
"vXvXvXvXvXvXvXvXvXvXvXvXvXvXvXlXsXdX_.Z B k.r 8 8 0 q 9 7 4 p _ O.O._ a 4 4 C n.xXvXvXvXvXvXvXvXvXvXvXvXvXvXvXvXvXvXvXvXvXvXvXvX",
"vXvXvXvXvXvXvXvXvXvXvXvXvXvXdX~.c n.8 a o.O.y.t.t.O._ s 7 y y.p.r.p.w.9.a 4 7 g `.hXvXvXvXvXvXvXvXvXvXvXvXvXvXvXvXvXvXvXvXvXvXvX",
"vXvXvXvXvXvXvXvXvXvXvXvXvXgX).S 8 5 p t.r.r.r.e.e.r.p.O.Y t.r.r.e.s.r.r.o.8 7 0 k `.vXvXvXvXvXvXvXvXvXvXvXvXvXvXvXvXvXvXvXvXvXvX",
"vXvXvXvXvXvXvXvXvXvXvXvXvXgX_.S 7 5 _ e.e.r.r.a.e.r.r.u.t.r.r.a.w.X.q.a.y.a 9 7 7 ^.vXvXvXvXvXvXvXvXvXvXvXvXvXvXvXvXvXvXvXvXvXvX",
"vXvXvXvXvXvXvXvXvXvXvXvXvXsXl.S 5 8 O.r.a.q.I P 8.s.r.r.r.r.r.L X     L u.Y 7 7 8 B rXvXvXvXvXvXvXvXvXvXvXvXvXvXvXvXvXvXvXvXvXvX",
"vXvXvXvXvXvXvXvXvXvXvXvXlX).S 8 r 8 O.a.8.X   X   L r.e.r.s.P   P 8.;   X._ 9 0 0 k ).vXvXvXvXvXvXvXvXvXvXvXvXvXvXvXvXvXvXvXvXvX",
"vXvXvXvXvXvXvXvXvXvXvXvX5Xb.5 0 8 7 o.s.# # q.i.U + q.r.r.p.8.8.a.r.p.8.q.Y 9 0 0 q ~.vXvXvXvXvXvXvXvXvXvXvXvXvXvXvXvXvXvXvXvXvX",
"vXvXvXvXvXvXvXvXvXvXvXvX).Z 0 0 7 8 _ r.8.q.e.e.s.q.0.+.+.+.+.r.e.r.r.r.t.t 0 q q N ).dXvXvXvXvXvXvXvXvXvXvXvXvXvXvXvXvXvXvXvXvX",
"vXvXvXvXvXvXvXvXvXvXvXvX7Xl.7 8 8 8 a t.r.r.r.r.r.i.] > < > ( u.e.r.r.e.Y 0 q z k g.yXlXvXvXvXvXvXvXvXvXvXvXvXvXvXvXvXvXvXvXvXvX",
"vXvXvXvXvXvXvXvXvXvXvXvXxXn.e 8 8 7 a O.q.q.w.u.>.^ E > < > b T 9.q.w.o.t 0 q k C N.hXxXvXvXvXvXvXvXvXvXvXvXvXvXvXvXvXvXvXvXvXvX",
"vXvXvXvXvXvXvXvXvXvXvXvXvX4Xk 7 5 7 t _ t.0.q.y.>.T = u < H = T T >._ t 0 8 z A F ~.vXvXvXvXvXvXvXvXvXvXvXvXvXvXvXvXvXvXvXvXvXvX",
"vXvXvXvXvXvXvXvXvXvXvXvXvX_.k 8 5 8 r t Y o.o.o.o.T = M > H h b v l q 0 q k f F n.4XlXxXvXvXvXvXvXvXvXvXvXvXvXvXvXvXvXvXvXvXvXvX",
"vXvXvXvXvXvXvXvXvXvXvXvXvXyXn.j 0 0 8 8 8 t E ~ c.m 6 c p r z h h j d 0 k A j c S l.~.rXvXvXvXvXvXvXvXvXvXvXvXvXvXvXvXvXvXvXvXvX",
"vXvXvXvXvXvXvXvXvXvXvXvXvXxX_.k 0 8 p u q k !._.).~.j j 0 e N x = = d 0 0 f f 8 S S ~.A.sXvXvXvXvXvXvXvXvXvXvXvXvXvXvXvXvXvXvXvX",
"vXvXvXvXvXvXvXvXvXvXvXvXvXvX7XD 0 u ( ( J M n.7XsX7XD c b l 6 e x d 7 0 f 0 q 8 l Z `.k.l.sXvXvXvXvXvXvXvXvXvXvXvXvXvXvXvXvXvXvX",
"vXvXvXvXvXvXvXvXvXvXvXvXvXvXzX).C.} ' ' ' ;.W.&XfX+Xl.0 l 0 j c 8 j j q 0 N k r j.z q q k g.gXvXvXvXvXvXvXvXvXvXvXvXvXvXvXvXvXvX",
"vXvXvXvXvXvXvXvXvXvXvXvXvXvXxX>XK.6. .' ( { { ` 4.E.`.D 0 k 5 6 6 5 0 5 9 k g 0 G k 0 5 0 k gXvXvXvXvXvXvXvXvXvXvXvXvXvXvXvXvXvX",
"vXvXvXvXvXvXvXvXvXvXvXvXvXvXaX5.3.3.{ { ) ` ) [ { :.'.C.l 6 O O $ j 8 $ 3 7 r /.N 9 j.j.7 C 4XvXvXvXvXvXvXvXvXvXvXvXvXvXvXvXvXvX",
"vXvXvXvXvXvXvXvXvXvXvXvXvXvXaX4.....| ( : i : i ( ..E.U.D.c & m b 0 1 e Z z A A q 9 A ~.k q l.).vXxXvXvXvXvXvXvXvXvXvXvXvXvXvXvX",
"vXvXvXvXvXvXvXvXvXvXvXvXvXvXwX..{ { { | ) : - : / ..3.;.4.&Xh.& @ O x B.l.j N 7 7 g j 7 7 0 q k ~.~.vXvXvXvXvXvXvXvXvXvXvXvXvXvX",
"vXvXvXvXvXvXvXvXvXvXvXvXvXjXwX3.{ ] , J ) ) / i / ..:.:.3.*XG.m R x.m./.~.M k 9 A z.F /.c.j 0 7 g Z 4XvXvXvXvXvXvXvXvXvXvXvXvXvX",
"vXvXvXvXvXvXvXvXvXvXvXvXvXfX&X5. .{ { ( J : : J } ..:.:.;.|.|.~ Q c.(.eX~.C.r k G j.! :X/.r 7 7 0 0 g.hXvXvXvXvXvXvXvXvXvXvXvXvX",
"vXvXvXvXvXvXvXvXvXvXvXvXvXvX;XR.6. .| { [ } :.:...:.:.:.;.U.U.<.H.&X|.H.*.K u M k.B z k z q k k 0 q F hXvXvXvXvXvXvXvXvXvXvXvXvX",
"vXvXvXvXvXvXvXvXvXvXvXvXvXvXjXwX5...| | { [ ) ( [ | } :.6.U.P.P.$.s s -.D.u @.M ! ~.Z N z 0 z.`.j 9 F rXxXvXvXvXvXvXvXvXvXvXvXvX",
"vXvXvXvXvXvXvXvXvXvXvXvXvXvXvXxXwX3.{ { | | } { | | } 3.L.P.P.P.&.&.K.#.y K K r q Z S z z z N F q 0 F _.sXxXvXvXvXvXvXvXvXvXvXvX",
"vXvXvXvXvXvXvXvXvXvXvXvXvXvXvXvXvX@X` { { ) ( } ;.3.3.6.U.T.T.U.P.$.y - $.4.K M z k z f z.+XF z 0 q Z g.).lXvXvXvXvXvXvXvXvXvXvX",
"vXvXvXvXvXvXvXvXvXvXvXvXvXvXvXvXvXiXW.%.) / ) 6.P.@X*X.XD.*.W a 2 - y <.T.R.=.B S z z k c ~.Z.0XZ 0 k C ).vXvXvXvXvXvXvXvXvXvXvX",
"vXvXvXvXvXvXvXvXvXvXvXvXvXvXvXvXvXaX$XE.P.5.P.E.*X3X3X&X{.~ a a W -.4.4.K.E.%Xl.z k k k z.z z j.C z k S ~.xXvXvXvXvXvXvXvXvXvXvX",
"vXvXvXvXvXvXvXvXvXvXvXvXvXvXvXvXvXaXW.5.K.K.I.|.R.@X&X3XwX=.W V s s Y $.<.|.iXtXc k 0 j Z.N N A.F z z F A.sXvXvXvXvXvXvXvXvXvXvX",
"vXvXvXvXvXvXvXvXvXvXvXvXvXvXvXvXvXjX@XP.<.$.$.W.R.S.R.@X&XD.-.-.-.1.K.L.U.|.iX+Xg.D z ~./.j j Z.Z g z b.rXsXvXvXvXvXvXvXvXvXvXvX",
"vXvXvXvXvXvXvXvXvXvXvXvXvXvXvXvXvXxXW.-.&.<.D.=.I.R.=.,.D.W..XE.$.@.$.-.I.$X#X=X(.k.C j.A.k 9 5 0 M F 4XvXvXvXvXvXvXvXvXvXvXvXvX",
"vXvXvXvXvXvXvXvXvXvXvXvXvXvXvXvXvXjX*XU.-.@.s W I.*X*X*X@X|.E.Q.I.-.D.I.I.R. X XJ.C.j.d.Z z F N N j 7XvXvXvXvXvXvXvXvXvXvXvXvXvX",
"vXvXvXvXvXvXvXvXvXvXvXvXvXvXvXvXvXjX*XU.K.<.%.P.T.Q..X*X|.T.U.T.K.#.*.-.<.I.$X XF.c.b.b.z.z.g.k.^.4XvXvXvXvXvXvXvXvXvXvXvXvXvXvX",
"vXvXvXvXvXvXvXvXvXvXvXvXvXvXvXvXvXxX<XE.5.&.4.P.<.$.-.*.D.E.E..X|.I.D.1.1.[. X X{.C.S j.F j.F b.yXvXvXvXvXvXvXvXvXvXvXvXvXvXvXvX",
"vXvXvXvXvXvXvXvXvXvXvXvXvXvXvXvXvXxX1XI.<.&.<.U.L.$.s s =.H.;X3X'.C.D.1.7.[. X XH.c.Z Z Z Z c A 4XvXvXvXvXvXvXvXvXvXvXvXvXvXvXvX",
"vXvXvXvXvXvXvXvXvXvXvXvXvXvXvXvXvXxX,XU.<.@.@.P.4.@.W ~ '.;X,X3X%XD.F.1.7.[. X XH.z.b 6 b j Z j ^.vXvXvXvXvXvXvXvXvXvXvXvXvXvXvX",
"vXvXvXvXvXvXvXvXvXvXvXvXvXvXvXvXvXhX&XE.<.&.%.&.6.%.S.(.,XwX3X<X&XD.,.,.J. XF.[.%Xb j $ j 6 c A A.xXvXvXvXvXvXvXvXvXvXvXvXvXvXvX",
"vXvXvXvXvXvXvXvXvXvXvXvXvXvXvXvXvXxX1XT.P.%.s $.P.<.S.(.1X,X-X$X=X-X2X2XJ.~ W ].~.6 e $ $ e 6 A z.sXvXvXvXvXvXvXvXvXvXvXvXvXvXvX",
"vXvXvXvXvXvXvXvXvXvXvXvXvXvXvXvXvXvXeX}.T.P.P.&.%.5.@XwXwX,X%X{.=X2X2X2X-X#X#XoXz.0 1 1 O l k c g.tXvXvXvXvXvXvXvXvXvXvXvXvXvXvX",
"vXvXvXvXvXvXvXvXvXvXvXvXvXvXvXvXvXvXfX$XP.L.6.&.i Y |.<XiXaXiX1X=XJ.J.{.H.H.<X%XG j $ 1 O j k z Z A.hXvXvXvXvXvXvXvXvXvXvXvXvXvX",
"vXvXvXvXvXvXvXvXvXvXvXvXvXvXvXvXvXvXvX<XE.L.L.-.%.$.P.*XeXaXiX2X-XF.W w ; E &XC.A z $ $ $ 0 j k c g.yXvXvXvXvXvXvXvXvXvXvXvXvXvX",
"vXvXvXvXvXvXvXvXvXvXvXvXvXvXvXvXvXvXxXaX@X5.6.4.%.#.P.P.;XaXaX2X2X2X XS.,.J.<X~ N z 3 $ e k j j z g.sXvXvXvXvXvXvXvXvXvXvXvXvXvX",
"vXvXvXvXvXvXvXvXvXvXvXvXvXvXvXvXvXvXvXkX;XU.L.L.3.)  .2.[.kXzXiX>X-X-X{.S.S.oX! N z e $ j k k j j _.vXvXvXvXvXvXvXvXvXvXvXvXvXvX",
"vXvXvXvXvXvXvXvXvXvXvXvXvXvXvXvXvXvXvXzX;XR.@X6... . .2.Y.#XjXfX2X=X-X XW w + % F z 0 $ j z k Z l.7XvXvXvXvXvXvXvXvXvXvXvXvXvXvX",
"vXvXvXvXvXvXvXvXvXvXvXvXvXvXvXvXvXvXvXvXfXaX;XY.2.2.2.7.1.; 8XxXaX1X-X=XF.^ Q M.D C z j j k e F 9XlXvXvXvXvXvXvXvXvXvXvXvXvXvXvX",
"vXvXvXvXvXvXvXvXvXvXvXvXvXvXvXvXvXvXvXvXvXvXjX}.7.7.7.[.&.+ OXvXxXkXuX#XF.~ m.R % A B l k l B F sXvXvXvXvXvXvXvXvXvXvXvXvXvXvXvX",
"vXvXvXvXvXvXvXvXvXvXvXvXvXvXvXvXvXvXvXvXvXvXkX1.7.[.[.[.&.+ OXvXvXpX>X<X#X{.=Xv % k.c c l F l.b.tXhXvXvXvXvXvXvXvXvXvXvXvXvXvXvX",
"vXvXvXvXvXvXvXvXvXvXvXvXvXvXvXvXvXvXvXvXvXvX+X_ [.[.[.[.#.@ 9XvXvX+XJ.-XF.^ F.& n ^.D ~.n.).).).pXxXvXvXvXvXvXvXvXvXvXvXvXvXvXvX",
"vXvXvXvXvXvXvXvXvXvXvXvXvXvXvXvXvXvXvXvXlXB.o Y [.[.[.[.Y w hXvXvX~.S.=XF.,.J.@ v.gXn.n.~._.tXsXlXvXvXvXvXvXvXvXvXvXvXvXvXvXvXvX",
"vXvXvXvXvXvXvXvXvXvXvXvXvXvXvXvX9XV.R h O . O ].XX[.[.}.w R vXvXvXx.S. X,.S.#X@ x.vXsX9XyX)._.gXvXvXvXvXvXvXvXvXvXvXvXvXvXvXvXvX",
"vXvXvXvXvXvXvXvXvXvXvXvXvXvXvXv.X X o o % h yXvXqX].F.Q * 5XvXvX9X& (.2X-X-XiXR % gXvXvXhXrXrXvXvXvXvXvXvXvXvXvXvXvXvXvXvXvXvXvX",
"vXvXvXvXvXvXvXvXvXvXvXvXvXvXvX8Xv._.9X5X6XOXV.v.f.v v n 5XvXvXdX& * qX(.oXiXfX9X& R xXvXvXvXvXvXvXvXvXvXvXvXvXvXvXvXvXvXvXvXvXvX",
"vXvXvXvXvXvXvXvXvXvXvXvXvXvXvXvXvXvXsX9X5X5X9XhX_.* 5XxXvXvXvXv o h n x.R B.x.M.f.h gXvXvXvXvXvXvXvXvXvXvXvXvXvXvXvXvXvXvXvXvXvX",
"vXvXvXvXvXvXvXvXvXvXvXvXvXvXvXvXvXvXvXvXvXvXvXvXlXyXvXvXvXvX_.o % f.6XvX9Xv v.hXsXsXvXvXvXvXvXvXvXvXvXvXvXvXvXvXvXvXvXvXvXvXvXvX",
"vXvXvXvXvXvXvXvXvXvXvXvXvXvXvXvXvXvXvXvXvXvXvXvXvXvXvXvXvXvXyXx.8XvXvXvXvX9XdXvXvXvXvXvXvXvXvXvXvXvXvXvXvXvXvXvXvXvXvXvXvXvXvXvX",
"vXvXvXvXvXvXvXvXvXvXvXvXvXvXvXvXvXvXvXvXvXvXvXvXvXvXvXvXvXvXvXvXvXvXvXvXvXvXvXvXvXvXvXvXvXvXvXvXvXvXvXvXvXvXvXvXvXvXvXvXvXvXvXvX",
"vXvXvXvXvXvXvXvXvXvXvXvXvXvXvXvXvXvXvXvXvXvXvXvXvXvXvXvXvXvXvXvXvXvXvXvXvXvXvXvXvXvXvXvXvXvXvXvXvXvXvXvXvXvXvXvXvXvXvXvXvXvXvXvX"
};
