/* XPM */
static char *pumpkim[] = {
/* columns rows colors chars-per-pixel */
"64 64 243 2 ",
"   c #040203",
".  c #0B0404",
"X  c #0B0A09",
"o  c #1B0A06",
"O  c #1A1818",
"+  c #19100F",
"@  c #240C04",
"#  c #2A0E06",
"$  c #250A05",
"%  c #370C02",
"&  c #2C1209",
"*  c #281006",
"=  c #321409",
"-  c #3B150A",
";  c #3B190C",
":  c #361505",
">  c #3C1C13",
",  c #302214",
"<  c #1C1F23",
"1  c #3D3A3B",
"2  c #48180A",
"3  c #561807",
"4  c #411E12",
"5  c #641C05",
"6  c #4A230D",
"7  c #5A280B",
"8  c #4A2413",
"9  c #53301E",
"0  c #4D310D",
"q  c #6A270A",
"w  c #7E2B09",
"e  c #762808",
"r  c #753213",
"t  c #613C28",
"y  c #4B4811",
"u  c #5C5A16",
"i  c #595515",
"p  c #54460E",
"a  c #635A16",
"s  c #705D16",
"d  c #65631B",
"f  c #69661C",
"g  c #6D6B1D",
"h  c #686415",
"j  c #716B19",
"k  c #7A781E",
"l  c #72422A",
"z  c #6F4B37",
"x  c #6D6C21",
"c  c #716E21",
"v  c #747225",
"b  c #7C7A26",
"n  c #787524",
"m  c #76752C",
"M  c #4B4948",
"N  c #841F01",
"B  c #872909",
"V  c #88320C",
"C  c #9A350A",
"Z  c #903813",
"A  c #A32D09",
"S  c #AA3808",
"D  c #B33B0A",
"F  c #B73B0A",
"G  c #964813",
"H  c #B44307",
"J  c #BD430B",
"K  c #BC4B0B",
"L  c #B74808",
"P  c #BB520E",
"I  c #B85208",
"U  c #A94A14",
"Y  c #BA5714",
"T  c #AD440D",
"R  c #BE631D",
"E  c #924A25",
"W  c #96522D",
"Q  c #A85727",
"!  c #A65B36",
"~  c #837E28",
"^  c #A9623B",
"/  c #B8652A",
"(  c #826E17",
")  c #C2450B",
"_  c #C34B0B",
"`  c #CB4D0C",
"'  c #CB4908",
"]  c #D14D0A",
"[  c #C5530C",
"{  c #CC530C",
"}  c #C55A0A",
"|  c #CC5B0D",
" . c #C45707",
".. c #D3540C",
"X. c #D9560B",
"o. c #D45B0D",
"O. c #DB5C0D",
"+. c #D75807",
"@. c #C45C12",
"#. c #CC5D11",
"$. c #C85610",
"%. c #D45D10",
"&. c #DA5C10",
"*. c #D15510",
"=. c #E25C0B",
"-. c #CB620D",
";. c #D4600F",
":. c #DD630D",
">. c #D86C0E",
",. c #CC6212",
"<. c #C86819",
"1. c #D36311",
"2. c #DC6411",
"3. c #D66B14",
"4. c #DC6B12",
"5. c #D06818",
"6. c #DC7215",
"7. c #E2650D",
"8. c #E56A0E",
"9. c #E96E0D",
"0. c #E9670F",
"q. c #EC740E",
"w. c #EA750E",
"e. c #F17B0F",
"r. c #F0720B",
"t. c #E26510",
"y. c #E46C11",
"u. c #E96E11",
"i. c #E57313",
"p. c #EB7412",
"a. c #ED7B13",
"s. c #E77A18",
"d. c #F17C12",
"f. c #D77A27",
"g. c #C9752B",
"h. c #E37F20",
"j. c #926850",
"k. c #B16B45",
"l. c #AB714E",
"z. c #B67A59",
"x. c #AD724E",
"c. c #AE7F60",
"v. c #937562",
"b. c #8D8936",
"n. c #EC811B",
"m. c #EF8216",
"M. c #F28215",
"N. c #F28519",
"B. c #F58A1C",
"V. c #F78817",
"C. c #F48817",
"Z. c #DB8435",
"A. c #E88322",
"S. c #F4952B",
"D. c #EC9338",
"F. c #F59C3C",
"G. c #F28F27",
"H. c #F6A03D",
"J. c #A8A357",
"K. c #B68768",
"L. c #B78D71",
"P. c #BB967B",
"I. c #AA8268",
"U. c #ADA667",
"Y. c #B9B476",
"T. c #AAA670",
"R. c #A1914B",
"E. c #D8914E",
"W. c #E89A49",
"Q. c #E7A25C",
"!. c #F4AB5B",
"~. c #F6A244",
"^. c #C48968",
"/. c #C89676",
"(. c #CD996D",
"). c #F1B272",
"_. c #BD9D84",
"`. c #BFA089",
"'. c #CC9D81",
"]. c #C2A48C",
"[. c #CAA388",
"{. c #D5A58A",
"}. c #C1A790",
"|. c #C6AB96",
" X c #C7B09E",
".X c #D8B39B",
"XX c #C8B789",
"oX c #F2BC86",
"OX c #E2B99B",
"+X c #EDB881",
"@X c #CBB4A2",
"#X c #CCB8A8",
"$X c #D7BAA7",
"%X c #D2BFB0",
"&X c #E2BBA5",
"*X c #F0C69A",
"=X c #D7C5AD",
"-X c #DBC5B6",
";X c #DBCBBD",
":X c #D5C4B5",
">X c #E7C3AA",
",X c #E7C9B8",
"<X c #F3D5B6",
"1X c #F5D0A9",
"2X c #C6C189",
"3X c #DDCEC1",
"4X c #DED1C5",
"5X c #E9CFC1",
"6X c #E3D2C5",
"7X c #EDD2C5",
"8X c #E3D5CA",
"9X c #E4D9CE",
"0X c #EBD9CE",
"qX c #EBD6CA",
"wX c #F2D7CA",
"eX c #F4DBC9",
"rX c #E6DCD2",
"tX c #EADDD4",
"yX c #F4DED2",
"uX c #EAE3CB",
"iX c #EBE0D7",
"pX c #ECE3DB",
"aX c #F5E1D6",
"sX c #F3E4DB",
"dX c #F9E6DD",
"fX c #F3EBDD",
"gX c #F9EADD",
"hX c #F8E5D7",
"jX c #F7E3CB",
"kX c #EEE9E4",
"lX c #EDE6E0",
"zX c #F4EAE4",
"xX c #FBEBE4",
"cX c #F4EFEB",
"vX c #F9EEEA",
"bX c #F5E7E1",
"nX c #F6F2ED",
"mX c #F9F2EE",
"MX c #F9F2E6",
"NX c #FAF5F2",
"BX c #FAF9F5",
"VX c #FCFBFB",
"CX c #F7F4F0",
/* pixels */
"cXcXcXcXcXcXcXcXcXcXcXcXcXcXcXcXcXcXcXcXcXcXcXcXcXcXcXcXcXcXcXcXcXcXcXcXnXcXcXcXcXcXcXcXcXcXcXcXcXcXcXcXcXcXcXcXcXcXnXnXcXcXcXcX",
"cXcXcXcXcXcXcXcXcXcXcXcXcXcXcXcXcXnXnXnXnXnXnXnXnXnXnXnXnXnXnXnXnXnXnXnXnXnXnXnXnXnXnXnXnXnXnXnXcXcXcXcXcXcXcXcXnXnXcXcXcXnXcXcX",
"nXnXnXcXcXnXcXcXnXnXnXnXnXnXnXnXnXnXnXnXnXnXnXnXnXnXnXnXnXnXnXnXnXnXnXnXnXnXnXnXnXnXnXnXnXnXnXnXnXnXnXnXnXnXnXnXnXnXnXnXnXnXnXnX",
"cXnXnXnXnXnXnXnXnXnXnXnXnXnXnXnXnXnXnXnXnXnXnXnXnXnXnXnXnXnXnXnXnXnXnXnXnXnXnXnXnXnXnXnXnXnXnXnXnXnXnXnXnXnXnXnXnXnXnXnXnXnXnXnX",
"nXnXnXnXnXnXnXnXnXnXnXnXnXnXmXmXnXnXnXnXnXnXnXnXnXnXnXnXnXnXnXnXnXnXmXnXmXmXmXmXnXnXnXnXnXnXnXnXnXnXnXnXnXnXnXnXnXnXnXnXnXnXmXmX",
"nXnXnXnXnXnXnXnXnXnXnXnXmXmXCXmXnXnXmXnXmXmXnXmXmXmXmXmXmXmXmXmXmXmXmXmXmXCXmXmXmXnXmXmXmXmXmXmXmXmXmXCXCXnXCXCXCXmXCXmXCXCXCXCX",
"nXnXnXnXnXnXnXCXCXCXCXCXmXmXCXmXmXmXmXmXmXmXCXCXCXCXCXCXmXCXnXnXnXCXmXCXCXCXCXCXCXCXCXmXCXCXCXCXCXCXCXCXCXCXCXCXCXCXCXCXCXCXCXCX",
"nXnXnXnXCXCXCXCXCXCXCXCXCXCXCXCXCXCXCXCXCXCXCXCXCXCXCXCXmXnXBXBXBXCXnXCXCXCXCXCXCXCXCXCXCXCXCXCXCXCXCXCXCXCXCXCXCXCXCXCXCXCXCXCX",
"CXCXCXCXCXCXCXCXCXCXCXCXCXCXCXCXCXCXCXCXCXCXCXCXCXCXCXCXBXBXsXtXtXmXVXCXCXCXCXCXCXCXCXCXCXCXCXCXCXCXCXCXCXCXCXCXCXCXCXCXCXCXCXCX",
"CXCXCXCXCXCXCXCXCXCXCXCXCXCXCXCXCXCXCXCXCXCXCXCXCXCXCXBXpXv.l l l j.@XmXCXCXCXCXCXmXCXBXBXCXmXCXCXCXCXCXCXCXCXCXCXCXCXCXCXCXCXCX",
"CXCXCXCXCXCXCXCXCXCXCXCXCXCXCXCXCXCXCXCXCXCXCXCXCXCXCXBXj.7 8 8 6 7 7 @XVXCXCXCXCXVXBXfXfXNXBXCXCXCXCXCXCXCXCXCXCXCXCXCXCXCXCXCX",
"CXCXCXCXCXCXCXCXCXCXCXCXCXCXCXCXCXCXCXCXCXCXCXCXCXCXVXiX9 ; = ; 4 4 - j.VXCXCXVXBXuXT.m b.Y.zXBXCXCXCXCXCXCXNXCXNXNXNXNXCXCXNXCX",
"CXCXCXCXCXCXCXCXCXCXCXCXCXNXCXCXNXNXNXNXNXNXNXCXCXCXBXpX9 : * ; 8 4 6 z cXBXmX=XU.b.g i v k XXVXCXCXCXNXNXBXNXNXNXNXNXNXNXNXNXNX",
"CXCXCXCXCXCXNXNXNXNXNXNXNXNXNXNXNXNXNXNXNXNXNXNXCXCXBXcXt $ = = # ; % j.BXmXU.n b v c v v b XXNXBXVXCXNXNXNXNXNXBXNXNXNXNXNXNXNX",
"CXCXBXNXNXNXNXNXNXNXNXNXNXNXNXNXNXNXNXNXNXCXCXCXCXCXCXmXz $ = # = = % v.VXU.n x f x x v n b.b.b.Y.fXVXNXCXNXNXNXNXNXBXNXNXNXNXNX",
"CXCXNXNXNXNXNXNXNXBXNXNXBXNXNXNXNXNXNXNXNXVXVXVXVXVXVXNXz $ & @ = * % I.MXv f n f i f u f u u g g b.2XcXVXBXNXBXNXNXNXBXBXBXBXBX",
"NXNXNXNXCXBXBXBXNXNXBXNXCXCXCXCXNXNXNXVXCXeX*XoX).oX1X<X9 @ = # : ; : E W.p y v u g f v d u f a f d j J.uXVXBXBXBXBXBXBXBXBXBXBX",
"BXBXNXCXCXCXNXBXNXNXNXNXNXBXCXCXBXVXVXeXW.A.s.6.4.>.>.g.8 o o = @ : = G -.0 y f u v d c u i u y f d v h J.mXBXBXBXBXBXBXBXBXBXBX",
"BXBXCXBXBXBXNXNXNXBXBXNXNXBXCXVXxX*X+XW.n.A.A.6.@.I } G = = # = = : - q U a a g c d d g b b ~ b n g b.n b.fXVXBXBXBXBXBXBXBXBXBX",
"NXCXNXNXBXBXNXBXBXBXBXBXNXBXBX1XD.s.s.a.a.a.a.s.5.C e 2 # # # @ & * & 0 s p 0 p j b v d g g ~ g ~ b a j Y.NXBXBXBXBXBXBXBXBXBXBX",
"NXNXNXBXBXBXBXBXBXBXBXBXVXMXQ.i.a.p.O.q.q.q.q.a.6.Y q # # @ * * # & # ; 0 : # : p i h k n d g g d g ~ U.mXBXBXBXBXBXBXBXBXBXBXBX",
"BXBXBXBXBXBXBXBXBXBXBXBXgXQ.n.8.7.e.+.7.i.s.m.m.n.n.h.R Z 2 - 7 r G G G G G C C 5 3 0 p a f a j ( R.uXmXBXBXBXBXBXBXBXBXBXBXBXBX",
"BXBXBXBXBXBXBXBXBXBXBXBXQ.>.i.p.O.+.7.y.n.m.m.a.M.a.m.M.d.I U 4.p.d.d.V.M.N.a.4.J S B e e q 5 w I f.<XVXCXBXBXBXBXBXBXBXBXBXBXBX",
"BXBXBXBXBXBXBXBXBXBXVX>Xf.i.` :.9.4.n.i.8.O.p.d.d.p.a.m.w.:.p.9.w.q.w.w.M.M.M.N.a.o.+.8.7.{ | o.i.i.D.jXVXBXBXBXBXBXBXBXBXBXBXBX",
"BXBXBXBXBXBXBXBXBXBXgXZ.1.8.:.` :.i.i.a.p.a.9.7.9.a.a.q.p.:.8.w.9.p.9.a.9.q.d.d.M.M.8...7.a.d.V.e.a.M.!.CXBXBXBXBXBXBXBXBXBXBXBX",
"BXBXBXBXBXBXBXBXBXVX*X6.} { +.#.i.s.s.7.7.p.p.a.9.8.a.d.:.` 7.8.7.d.8.M.q.d.M.N.M.B.a.8.w.q.9.7.e.V.B.S.eXVXBXBXBXBXBXBXBXBXBXBX",
"BXBXBXBXBXBXBXCXBXzXE.3.1._ _ 3.4.4.a.a.a.7.2.u.p.d.q.9.O.X.7.a.9.p.p.p.d.u.p.p.a.a.M.9.7.] w.d.M.M.B.V.!.BXBXBXBXBXBXBXBXBXBXBX",
"BXBXBXBXBXBXBXBXVX<X-.} 4.{ #.i.:.o.O.o.p.a.a.u.O.8.p.p.` X.O.7.X.u.=.8.9.7.a.9.M.a.B.a.7.w.a.p.w.w.a.B.F.gXVXBXBXBXBXBXBXBXBXBX",
"BXBXBXBXBXBXBXCXVX*X-.[ H K 3.i.s.s.2.2.....i.a.d.e.7.7...7.8.q.9.a.a.a.a.M.a.M.a.M.M.B.8.O.O.7.p.d.B.B.G.1XVXBXBXBXBXBXBXBXBXBX",
"BXBXBXBXBXBXBXBXBXQ.3.1._ L #.[ ` 2.y.a.7.8.7.] t.d.d.8...p.O.O.8.O.8.X.7.7.7.7.8.9.8.p.w.X.7.u.N.M.a.M.V.).VXBXBXBXBXBXBXBXBXBX",
"BXBXBXBXBXBXCXBXzXf.} } _ 5.4.| o.) J o.:.7.p.7.p.X.7.O...O.` p.X.y.u.7.d.8.M.a.a.M.M.M.B.7.y.p.7.8.e.N.B.).BXBXBXBXBXBXBXBXBXBX",
"BXBXBXBXBXBXCXBXMXE.} D H ,.3.4.2.{ 2._ F O.O...p.p.d.] o.a.y.y.M.9.a.M.8.M.9.a.p.7.p.w.d.7.' ..9.d.M.B.N.!.MXBXBXBXBXBXBXBXBXBX",
"BXBXCXCXCXCXCXBXsXZ.,.[ K #.[ J *.o.:.t.2.7.J &.O...O.` ` O...O.O...O.] 7.X.7.8.O.8.:.d.q.8.O.a.a.q.e.w.M.F.gXBXBXBXBXBXBXBXBXBX",
"CXCXCXCXCXCXCXBXsXg.-.H P 3.{ K ` S { { ` ` ..t.:...7.F 2.8.:.d...9.w.:.M.p.a.d.p.V.d.a.B.V.] O.7.9.8.M.B.H.hXBXBXBXBXBXBXBXBXBX",
"CXCXCXCXCXCXnXCXnXE. .H T #.1.2.1.{ O.F B - % B 7.8.7.O.o.p.8.7.p.7.8.p.:.q.7.7.o.C S =.9.w...7.O.d.V.N.B.F.gXBXCXBXBXBXBXBXBXBX",
"CXCXnXnXnXnXnXnXMXE.-.[ P [ [ _ o.{ o.T +   M M N X.O.F ....' 7.) ..&.` 7.] 7.;.% O 1 q p.e.7.8.d.w.q.q.m.S.jXBXCXCXNXBXBXBXBXBX",
"CXnXnXnXnXnXnXcXnXE.K H @.3._ ` K S ) 3     < O q u.p.O.y.9.7.p.7.u.p.y.d.a.d.P . O M X <.e.:.' ..7.7.a.M.~.gXBXCXCXNXNXBXBXBXBX",
"nXnXnXcXcXcXcXzXnXOX} H Y #.1.;.*.%.` 3 + X X   q ] o.` ` :.....O...O.7.O.o.=.C . .   O Y r.O.7.:.p.M.N.M.!.CXCXCXCXNXNXNXNXBXNX",
"nXnXcXcXkXkXkXpXzXOX5.P Y [ _ K $.{ { C > O O ; C O.` D =.) ) :.) O.:.` u...u.K $ O < t a.V.7.O.d.8.p.a.m.!.CXCXCXCXCXCXCXNXNXNX",
"cXcXkXkXlXpXiXiXpX,X<.S P 3._ [ D D J A C e e _ 2...7.L T t.O.7.y.:.8.7.[ y.u.9.C 2 r %.e.a.7.X.X.8.8.N.B.*XBXmXCXCXCXCXCXCXCXNX",
"kXkXlXpXiXtXrXrXrX9XE.K [ @.| 1.*.o.` S _ A J ` A ` ) 3 . C ` ) _ ..` V . C t.{ X.] X.7.7.w.7.9.y.d.N.N.F.gXCXmXCXCXCXCXCXCXCXCX",
"lXpXiXtXrX9X8X8X3X4X(.} P ,.[ L $._ o.o.{ ..o.O.{ t._ C - . e T S *.V   6 o.p.y.p.p.p.M.d.N.....p.8.a.w.!.mXmXmXCXCXCXCXCXCXCXCX",
"pXiXrX9X8X4X3X;X:X:X.X<.H <.,.{ ` D { S ) J _ ....` D D D q o @ & @ + 7 *.p.7.p.y.p.u.p.a.p.O.X.:.w.p.G.<XBXmXmXmXCXCXCXCXCXCXCX",
"iXrX9X8X3X;X:X%X#X@X@X^.} } -.| | %.o.{ o.F ` { F &.F S J A S w 3 w C ` ` ` O.{ t.X.:.7.p.p.O.w.w.N.M.oXCXmXmXmXmXmXCXCXCXCXCXCX",
"tXrX8X3X;X:X#X@X X|.}.}.g.I ,._ [ _ { ;.{ y.:.:.t.O.) _ { J { ` ` 0.` 2.y.2.a.y.a.p.p.d.B.y.' O.7.8.D.eXmXmXmXmXmXmXCXmXmXCXCXCX",
"rX9X4X;X:X#X@X|.|.}.].}./.Y @.1.;._ ` D ` _ ) ..) ` F D ) J ` 2.o.o.4.O.y.:.:.y.7.i.:.i.s.O.7.7.p.s.1XmXvXmXmXmXmXmXmXCXmXmXCXCX",
"rX8X4X;X:X#X X|.}.].].`.`.^.R | [ ;.{ %.%.` ..O.{ :._ { { D o.J ` ..) O.` &...O.y.2.i.a.i.] 7.8.e.oXxXxXxXvXmXmXmXmXmXmXmXmXCXCX",
"rX8X4X;X:X#X X|.}.].`._.P.P.K.<.| [ J %._ *.` o.o.` J ) ....:.:.O.8.2.i.y.y.p.y.p.i.s.i.8.o.:.p.Q.yXbXxXvXvXvXmXmXmXmXmXCXmXCXCX",
"tX9X8X3X-X%X@X|.}.]._.P.P.L.L.z.g.o.o.| ` *.J o.` .._ ` ` ) { _ ....{ ......:.:.7.y.p.%.+.u.A.).7XyXbXxXxXvXvXvXmXmXmXmXmXmXmXCX",
"iXrX9X6X3X-X%X@X|.].'.P.L.L.K.c.x./ | | o.| :.{ O.` ) _ o...o.o.y.2.2.2.&.i.4.p.y.N.s.:.4.Z.(.,X7XaXxXxXxXvXmXmXmXmXmXmXmXmXCXCX",
"pXiXrX9X6X;X-X%X@X|.].P.L.K.I.c.l.j.Q Y } | | { o.{ J J o.{ o.o.O.2.:.:.y.2.y.y.s.@.K Y k./.$X,XyXdXxXxXxXxXmXmXvXmXmXmXmXmXmXCX",
"zXpXiXtX9X6X;X-X%X$X X[.P.L.z.l.l.^ W E G T L K J L C B T o.o.O.:.:.y.:.i.i.s.,.U Z ! z.'.&X,XeXhXxXxXxXxXvXmXmXvXmXmXmXmXmXmXCX",
"zXzXpXpXtX9X8X6X;X-X%X@X|.[.P.K.l.l.^ W E V w e e q 5 3 3 B S K { o.1.;.,.@.Q ! z.(.{.&X,XwXaXdXxXxXxXxXxXxXvXvXmXmXmXmXmXCXCXCX",
"cXzXzXpXpXiXtX0X8X6X;X-X=X$X.X[.'./.K.z.x.k.! W E E G Z V e e e B V Z Z Q k.^.{.OX,X7XeXaXhXgXxXxXxXxXxXxXxXvXvXmXmXmXmXCXmXCXCX",
"nXcXcXzXkXpXpXtXtX0X8X6X6X,X-X-X$X$X.X{.{.[.'././.^.K.z.x.k.^ ^ ^ k.z.^.{.OX>X,XwXyXaXdXxXxXxXxXxXxXxXxXvXmXvXvXmXmXmXmXCXmXCXCX",
"nXnXcXcXzXzXzXpXpXtXtXtX0XqXqX6X6X6X,X,X,X,X>X&X$X$X.X.X.X.X.X.X&X&X,X,X7XwXyXaXhXgXxXxXxXxXxXxXxXxXxXxXvXmXvXmXmXmXmXmXmXCXCXCX",
"CXnXnXcXcXcXzXzXsXsXsXsXsXiXtXtXtXtX0X0XqXqX7X7X7X7X7X7X7X7X7XwXwXyXyXaXaXsXdXgXxXxXxXxXxXxXxXxXxXxXxXvXvXvXvXmXmXmXmXmXCXCXCXCX",
"CXnXnXnXnXcXcXcXzXzXbXzXsXsXsXsXsXsXsXsXsXaXaXaXaXyXaXaXaXaXaXsXhXdXdXdXdXbXxXxXxXxXxXxXxXxXxXxXxXxXvXvXvXmXmXmXmXmXmXmXCXCXCXCX",
"CXCXCXnXnXnXnXnXcXcXcXzXzXbXbXbXsXgXbXgXgXdXdXdXdXdXdXbXdXdXdXbXxXbXxXxXxXxXxXxXxXxXxXxXxXxXxXxXvXvXvXvXvXmXmXmXmXmXmXmXCXCXCXCX",
"CXCXCXCXCXmXnXnXnXvXvXvXvXcXcXbXxXxXxXxXxXxXxXxXxXxXxXxXxXxXxXxXxXxXxXxXxXxXxXxXxXxXxXxXxXvXvXvXvXvXvXmXmXmXmXmXmXmXmXCXCXCXCXCX",
"CXCXCXCXCXCXnXnXnXnXvXmXmXvXvXvXvXvXcXcXxXvXvXxXxXxXxXxXxXxXxXxXxXxXxXxXxXxXxXxXvXvXvXvXvXvXvXvXvXmXmXmXmXmXmXmXmXCXCXCXCXCXCXCX",
"CXCXCXCXCXCXCXmXnXnXnXmXmXmXmXmXmXvXvXvXvXvXvXvXvXvXvXvXvXvXxXvXxXxXvXvXvXvXvXvXvXvXvXvXvXvXvXmXmXmXmXmXmXmXmXmXCXCXCXCXCXCXCXCX",
"CXCXCXCXCXCXCXCXnXnXnXmXnXmXmXmXmXmXmXmXvXvXvXvXvXvXmXvXvXvXvXvXvXvXvXvXvXvXvXvXvXvXmXmXmXmXmXmXmXmXmXmXmXmXmXmXCXCXCXCXCXCXCXCX",
"CXCXCXCXCXCXCXCXCXmXnXnXnXnXmXmXmXmXmXmXmXmXmXmXmXmXmXmXmXmXmXmXmXmXmXmXmXmXmXmXmXmXmXmXmXmXmXmXmXmXmXmXmXmXmXCXCXCXCXCXCXCXCXCX"
};
