/* XPM */
static char *brick[] = {
/* columns rows colors chars-per-pixel */
"64 64 255 2 ",
"   c #4B4615",
".  c #6C4E1F",
"X  c #715633",
"o  c #736237",
"O  c #6F5E52",
"+  c #57694B",
"@  c #746E52",
"#  c #B8390A",
"$  c #AF3E11",
"%  c #914F19",
"&  c #BA480C",
"*  c #B9560C",
"=  c #AC4718",
"-  c #B74716",
";  c #BD4C13",
":  c #BB4B1C",
">  c #AA5718",
",  c #BC5413",
"<  c #BC5B14",
"1  c #B6561A",
"2  c #BC5C1C",
"3  c #B46215",
"4  c #B76515",
"5  c #BB621B",
"6  c #8E552A",
"7  c #9A5C25",
"8  c #875735",
"9  c #B34C26",
"0  c #A85C28",
"q  c #B95826",
"w  c #A85C36",
"e  c #B95834",
"r  c #976332",
"t  c #986539",
"y  c #AA652A",
"u  c #B46323",
"i  c #BC6324",
"p  c #B86B27",
"a  c #B4632C",
"s  c #BC642C",
"d  c #BD6B2D",
"f  c #BB732C",
"g  c #A96836",
"h  c #B46233",
"j  c #B46C33",
"k  c #BC6B34",
"l  c #B86639",
"z  c #BC6B3C",
"x  c #AB7238",
"c  c #B97539",
"v  c #C54709",
"b  c #C44C0D",
"n  c #C94D0D",
"m  c #D84D0E",
"M  c #C4540D",
"N  c #C9580C",
"B  c #D4590C",
"V  c #C34C12",
"C  c #C74D18",
"Z  c #C45314",
"A  c #CB5413",
"S  c #C35B15",
"D  c #CC5C13",
"F  c #C4551B",
"G  c #CB531C",
"H  c #C55B1B",
"J  c #CB5C1C",
"K  c #D25B14",
"L  c #D75719",
"P  c #D35C1B",
"I  c #E3500F",
"U  c #E5591B",
"Y  c #CB6415",
"T  c #CD6914",
"R  c #C4631B",
"E  c #CB641C",
"W  c #C76818",
"Q  c #D66717",
"!  c #D4631B",
"~  c #C55527",
"^  c #CB5524",
"/  c #C45D24",
"(  c #CB5C23",
")  c #C55C2B",
"_  c #CB5B2B",
"`  c #D45C23",
"'  c #D65827",
"]  c #D35B2B",
"[  c #CF5631",
"{  c #C85B35",
"}  c #E65B22",
"|  c #C46324",
" . c #CB6423",
".. c #C56B24",
"X. c #CB6B24",
"o. c #C3642B",
"O. c #CB632B",
"+. c #C36B2C",
"@. c #CB6B2C",
"#. c #D46323",
"$. c #D46A24",
"%. c #D3632A",
"&. c #DB6729",
"*. c #D36C2A",
"=. c #C7762A",
"-. c #CC722D",
";. c #D2722C",
":. c #DA7529",
">. c #C36433",
",. c #C36B33",
"<. c #CA6C33",
"1. c #C96739",
"2. c #C36C3B",
"3. c #D36C32",
"4. c #D76B38",
"5. c #CB7333",
"6. c #CB7A34",
"7. c #C67738",
"8. c #C4743B",
"9. c #CB733B",
"0. c #D37434",
"q. c #D47A34",
"w. c #D3733B",
"e. c #DB7738",
"r. c #D37C3B",
"t. c #E26E2F",
"y. c #855B47",
"u. c #996A45",
"i. c #92734A",
"p. c #877656",
"a. c #987958",
"s. c #A76947",
"d. c #B76C45",
"f. c #A87749",
"g. c #B97947",
"h. c #AD6D51",
"j. c #A97955",
"k. c #B87C54",
"l. c #907D68",
"z. c #AF7F66",
"x. c #C56C44",
"c. c #C86945",
"v. c #D76C42",
"b. c #C67847",
"n. c #CF774F",
"m. c #D67945",
"M. c #6F8350",
"N. c #7D9371",
"B. c #B8813E",
"V. c #C9853A",
"C. c #D4803A",
"Z. c #8E8355",
"A. c #99855A",
"S. c #AA874C",
"D. c #B8864A",
"F. c #AA8559",
"G. c #B88759",
"H. c #B6935C",
"J. c #958B69",
"K. c #9B9468",
"L. c #8C8A70",
"P. c #9A9878",
"I. c #A78866",
"U. c #B88B65",
"Y. c #AA9369",
"T. c #B89768",
"R. c #BB956B",
"E. c #B28C73",
"W. c #A89A77",
"Q. c #B79A77",
"!. c #98A570",
"~. c #B8A469",
"^. c #AAA679",
"/. c #B9A67A",
"(. c #BFB57C",
"). c #C88649",
"_. c #D78849",
"`. c #D0904E",
"'. c #C68857",
"]. c #CB8B5C",
"[. c #D58B57",
"{. c #CA955B",
"}. c #D5975A",
"|. c #E38E53",
" X c #D2A056",
".X c #C78C67",
"XX c #D08E6F",
"oX c #C49363",
"OX c #C4946B",
"+X c #C99869",
"@X c #D59969",
"#X c #C79876",
"$X c #D49A75",
"%X c #E18B6C",
"&X c #E49869",
"*X c #C8A66C",
"=X c #D5A46A",
"-X c #C8A877",
";X c #C3A37C",
":X c #D6A978",
">X c #CAB679",
",X c #D6B37C",
"<X c #E8A971",
"1X c #D4C07C",
"2X c #909388",
"3X c #AF9983",
"4X c #9BA98F",
"5X c #ACA688",
"6X c #B8A887",
"7X c #B9B48A",
"8X c #BCAB95",
"9X c #A9B592",
"0X c #B8B897",
"qX c #B2B7A4",
"wX c #C39C87",
"eX c #D79982",
"rX c #C8AB87",
"tX c #D5AA87",
"yX c #C4B28D",
"uX c #CCB48C",
"iX c #C9B989",
"pX c #D7B787",
"aX c #D3B48B",
"sX c #C9AD94",
"dX c #D5AC97",
"fX c #C8B996",
"gX c #D5BB94",
"hX c #E3B889",
"jX c #E7BC96",
"kX c #CEB7A8",
"lX c #9EC091",
"zX c #B8C695",
"xX c #B2C6AE",
"cX c #B4C8AA",
"vX c #C6C58B",
"bX c #D8C38A",
"nX c #D0D18F",
"mX c #C9C598",
"MX c #D3C59A",
"NX c #D8C898",
"BX c #CDD499",
"VX c #D5D69C",
"CX c #E7C48D",
"ZX c #E4C599",
"AX c #C8C8A6",
"SX c #D8C7A8",
"DX c #CCD5A4",
"FX c #D4D7A6",
"GX c #DACCB3",
"HX c #D4D5B5",
"JX c #E4CAA8",
"KX c #E6CEAE",
"LX c #E0E2B4",
"PX c #D2D3C2",
"IX c #E9E2CA",
/* pixels */
"C b A L U U P K Q U } &.&.! ;._.@XrXA.u.n.1.q q q 2 2 | | X.X.....+.,.e.e.e.[.>XK.@ u.{ U U B P ( ' ' ] ] [ ] ] ' ' %.>.1.&XeXz.",
"F * M K L L E Y D P ' %.X.W =._.*X/.p.u.x.9.<.@.@.@.@.*.*.*.*.*.-.0.0.e.e._.}.vX!.M.u.>.U U Q E / _ _ _ ) ~ ) ) ^ _ _ ) 2.%XeXl.",
"F * , D L ` X.E R J ^ O.@...6.`.*X/.p.t x.1.@.@.@.@.@.*.;.;.;.;.;.q.q.e.e._.}.vX!.M.u.d L B Q R i | E X.| / O. .J H J | ,.&X@Xp.",
": = , F ` %.-.@.| / ~ O.<...V.}.-X/.p.u.c.<.| | | X.X.X.;.;.;.;.;.q.q.0.w.m.}.>X!.M.u.a A B Y / s Y T T E W E E Y Y Y W =.|.{.o ",
"C 1 1 F ^ _ s s o.) { 1.,.+.9.[.#XQ.p.u.c.>.u u u d +.5.5.5.6.6.6.V.V.m.m.|.&XpX^.Z.f.l J P E o.l | R ....+.@.@.R S R | +._.'.o ",
") s o.>.>.>.j j c x.c.x.x.8.).[.#XQ.a.u.c.z g g j c c b.).).).).).).`.[.}.&X<XhX6XW.I.b.3.@.+.x.x.k k 8.g.g.b.b.k d ,.k z '.k.y.",
"@X{.{.+XoXoX~.~.~.+XOX+X+X{.=X,XiX0X4XW.OXoXH.G.G.oXoX+X@X@X=X=X=X:X:X>XbXhXCXZXmX0X6X*X=X X{.+X#XT.T././.Q./.;XT.OX+XOXQ.;X3XL.",
":X*X*X>X,XiXvXzXzXiXrXrX,X*X,XpXmXcX9X9X-X-X;X;X/.;X;X;XrXrXrXrXrXaXaXvXnXCXCXNXAXcX0XiX1X>X>XuXsXyX7XmX0X0XfXfXyXyXuXyXyX7X5X5X",
":X~.~.-XaXNXFXDXzXmXfXgXaX,X,XpXfXcXcX0XtXuXfXyX8X6X6X6X6X6X6X7X7XyXfXzXvXpXpXaXfXAXmXmXbXbXiXfXkXfXvXBXAXzXAXAXmXmXNXmXfX7X7X9X",
"C.=.6.).@X,XnXvX>X*X{.'.).)._.[.].U.U.'.[..XOXOXOXU.U.G.G.F.F.U.U.T.T.T.~.+X].'.oX+XoX{.}.}.@X+XOX{.*XnXiXW.Q.+XoX+X+X+XOXoXG.F.",
"B m m B 0.{.>X>X XV.p < , Z J #.( ( ( ( _ O.<.<.2.2.h 0 0 0 y h j j k k k 8.+.i | X.X.X.X.*.e.3.o.5 ).bX-Xs.l >.s k z c.1.1.+.> ",
"m I I L m.$XuXaX=X`.8.s / / O.<.o.o.>.>.1.<.+.+.d a a 0 0 0 y h j j j k ,.<.@.X.X.*.$.#.#.*.e.3.O.2 8.hX#Xs.l >.a a l 2.c.9.,.h ",
"m U L ^ n.tXsXuX$X].b.2.>.{ 1.9.,.k k 2.x.,.O.o.i q 0 > 0 0 y a j j j +.@.@.@.@.*.3.*.#. .*.e.3.O.i b.CX;Xu.l >.a a g z b.2.k c.",
"b L C : ].tX8XrX.Xn.c.1.{ { 1.w.<.d ,.9.9.<.#.( ( F 1 1 1 q s d +.+.+.+.+.@.@.@.;.0.*.X.E X.;.-.@.+.'.ZXrXi.d.z j y r l b.c y h ",
"b K F 1 ].aX0XQ.k.d.h >.o.) O.w.@.+.-.5.5.*.` J J F 1 1 1 q i d +.=.=.+.@.@.@.;.0.e.;.@...X.-.-.-.8.'.gXQ.i.s.z j g r l b.j y e ",
"M K S 1 }.pXiXT.g 7 0 u i 5 ..q.=...=.=.=.X.J J S < 1 1 1 u p p f f =.-.3.3.3.e.e.e.e.;.@.@.-.-.5.k k./.I.y.g l j j g d.x.k a s ",
"D K J i [.:XrXT.g y 0 q i 2 | ;.X.X.;.:.:.$.J ( ( / / i s s d +.,.5.5.5.3.3.3.e.m.m.e.w.0.0.0.0.w.n..XQ.I.u.d.2.1.2.x.c.{ { >.) ",
"*.#.O.,.[.:XrXU.x g y a q q | @.@.@.3.t.t.%.( ( O.O.O.>.,.,.,.,.8.8.9.9.w.1.w.m.m.m.m.m.m.m.r.r.m.[.XXI.l.a.d.c.9.c.c.c.[ [ { { ",
"[.).).'.-XrX8XQ.F.j.h.d.d.l z d.x.b.n.n.v.1.a a a j j z j x x x j c c g.g.g.g.'.'.'.G.G.'.'.).).).oXY.L.@ p.u.x x x s.w w w w w ",
":X+X*X-XuXfX0X0X/.Q.Q.U.U.U.U.U.OX#XOXXX.X'.D.D.D.G.H.H.H.H.H.H.H.H.T.T.T.T.~.-X/.~.~.~.*X*X*X*X*X-X^.N.N.L.A.S.S.S.F.j.h.j.F.I.",
"iXiXpXbXMXAXAXAXDXDXAXfXiXmXmXmXDXFXAXAXfXmXnXnXnXBXBXDXDXDXBXBXVXVXFXVXBXBXFXLXFXBXmXmXVXVXVXVXNXNXvXlXlXzXyX>X>X(.vXfXgXNXVXHX",
"OX+X*X*X:XrXrXrXrXaXaX-X-XpXaXiXMXFXmX0X8XuXbXiXiXiXfXMXMXMXMXNXNXNXNXNXMXMXSXKXSXmXyXyXgXMXgXpXpXhXaX9X0X0XrX-X~.~.^.yXgXmXmXAX",
"g c 8.b.).'.'.n.b.n.n.b.n.@X@X+XpXgXrXQ.E.T.XXXX.X.XXX#X#XeXeX$X$XeXeXeXtXtXdXZXdXwXE.E.#X#X#XXXXX%X$XwXwXwXXX'.f.f.a.E.wXQ.Q.Q.",
"q R X.X.X...@.@.@.O.) o.,.6.6.8.=XaXA.i.u.h.h.h.h.j.k.k.g.d.d.b.n.'.].'.'.U.#XSX5Xl.a.h.k.'.G..X.X'.'.U.oXoX'.).c c f.F.U.T.T.Q.",
"Z M D Y N M N D T A V H E T W R }.rX@ X 8 w w w t g g g 0 9 9 q <.8.8.6.6.c U.AXP.O 8 w s c B.).'.b.b.b.b.).).r.8.8.c g.D.H.T./.",
"F F J H Z , H E Q P ` &.:.Q T S }.:X@ X 8 w l e 0 h h k o./ ^ (  ...+.....k '.fXK.o t h +.+.8.9.m.w.w.9.r.r.r.r.q.0.5.9.b.).U.Q.",
"~ ~ H H S 2 /  .! #.] 4.e.$.E H @XrXp.X 8 w x.l h h d <.3.%.] ( ( | d ..X.2.'.uXJ.o t z <.@.=.5.3.4.w.0.0.q.q.e.e.0.0.9.b.b.G.3X",
"q / / / | | | |  ._ 1.v.9...i s $XsXl.O y.s.x.x.z l 1.1.4.4.4._ / s d <.9.n..XyXJ.o u.d.9.5.+.+.O.<.<.<.5.5.5.0.0.4.1.2.d.d.F.P.",
": V Z A J E < , S _ [ 1.>.5 5 s :XgXJ.@ 8 w ,.,.,.s o.O.4.4.%.( q i d +.9.b.'.Q.p.. 8 l 8.5.5.<.3.3.0.5.5.6.0.r.w.w.w.x.b.b.G.Y.",
"# # v n K D & & M G _ ) q * < ..<XZXW.p.8 0 i s o./ / ^ ] %.( H < 5 p +.,.x.k.A.o   X g ,.5.6.0.3.0.0.0.6.r.r.r.r.m.m.m.n.b.G.I.",
"# # # v C G & & N D ]  .5 * Y $.<XCXT.f.7 > < 5 R , , ; Z J H S * * 4 +.b.n.k.a.X   . y j f =.-.$.X...+.=.=.=.5.5.5.5.9.b.b.k.F.",
"9 = = = q q 9 1 < X.3.,.p 4 W ;.<XCX~.S.y u 4 p i 2 1 = 1 i i u 3 3 3 c '.].G.A.o   X t g x c k +.d k c c c c c 8.8.b.b.).).G.I.",
"s.u.u.t u.f.f.f.x g.'.G.D.B.D.).,XNX7XY.G.D.D.D.g.s.s.s.f.j.F.F.f.f.x I.Q.3X3XL.@ + @ l.a.a.A.j.f.F.U.U.T.T.T.T.R.T.OX#X#X;X/.W.",
"Q.Y.Y.I.I.Y.Q.Q.T.;XdXrXrX*X*X:XZXLXAXfX:X:X-X-X#XQ.Q.Q.5X5X5X5XW.Q.T.3X5X8X8X4X2XN.2X3X3X3X5X/.Q.#XrXrXyXyXyXyXsXuXsXsXfXfXyX7X",
"mXvXiX7X7XyXNXNXmXGXIXPXGXSXJXJXIXIXIXLXJXKXKXSXSXSXGXPXPXPXxXcXAXAXkX8X8XsXkXqXqXqXkXkXkXGXHXGXMXkXSXSXGXGXGXGXGXJXKXKXKXGXFXFX",
"'.G.'.'.D.k.].@X-XtXdXrX;X*X@X&X:XpX-X+X_.[.{.'.G.OX;XuX6X^.J.A.F.U.XXG.j.G.'.G.U.T.XXXX.XOX>X*X{.].].].{.oX{.{.].{.}.}.{.).).{.",
"q q s +.q : _ <.).'.].D.c f =.;.V.).c p M M < > 1 d b.{.S.i.X . 7 a <.u > 2 | i d 8.9.4.s k V.=.W S S 2 5 5 5 5 R R Y Y < * * R ",
", F Z Z Z A A J d 8.b.8.,.....X.;.q.;.T N M M H  .! :.|.G.p.O 8 a X.&.R 3 < 5 ..+.,.5.<.i ..=.W Y M M M M M M N D D Y Y Y W W ..",
"; Z ; & b n n Z / O.@.@.@.X. .$.*.:.$.! D N M ( #.K &.|.U.L.O 8 s *.} ! S < H X.O.O.<.@./ H  .J S M b n n n A A A K ! E E W X.+.",
": - - - - - - C ' ' %.] ] %.&.t.&.&.` ` ` ( F ) ) G 3.|.Q.2XO X w O.&.] ( ^ ( ] ] ] ] ] ^ ^ ^ ^ ^ C C G G G L ^ ` ` ]  . . .O.1.",
": - : : : - : G L L L L L ` &.t.&.%.( ( %. ./ q q q 9.@X6X2XO X 0 s %._ _ ^ _ ] ' ' ' ' C C C C C C C C F G G G ( ( ( ( O. .O.O.",
": - : ~ : 9 q G B B B B K K &.t.&. .H | @.@.@.a 0 i ).:X0X4X@ X 7 a O.) / ~ _ ` ^ G ` ' C V ; : : ; ; ; ; V Z F F H / (  .O.O._ ",
"V & - : - - - ; N B Q B D D Q :.:.$.E E E $.&.| i @._.<XMXqXZ.o y | ( ( / ( E P K A K L A V ; ; ; V b b b b b b A A G P #.#.#. .",
"n v & & $ $ - & * N T Y D N T :.:.:.T Y Y ! &./ i -._.<XbXmXA.r u  .` ( | X.E D D D K K D Z , , , A n n n v n n n n A L P #.&. .",
"C C - $ $ = = = = 1 / 2 < , S E  . .S , * F ` q q o.r.}.:X8Xa.t s ) ^ ) s o./ S Z Z S J H F 1 1 1 F n V V b V V ; ; ; ; C G ( o.",
"l 2.l w h l l d.s.d.d.z z k ,.9.9.8.k a a k 9.l g g.).{.rX9XJ.a.g.b.x.x.b.b.g.z k k j k k 2.2.d.z 2.,.,.,.k k k h h 0 0 0 h l d.",
"E.#XT.U.T.Q././.3XQ.E.E.U.OXOX+XoXoXU.F.F.G.oXY.I.U.T./.0XxX4X^.;X;XQ.#X-X#XT.U.U.U.F.F.U.OX#XOXOXOXoXT.T.T.T.T.Y.Y.A.A.A.A.A.I.",
"/.rX;X/./.-X-XrXuXrX;X-X:X:X:X:XtXaXuXyX6X;X>X6X6X;X>XiXzXcXqX0XiXiXyXaXpXrXrXyXyXyX^.W.6XrXaXtX:X:X>X>X>XiXiXiXiX7X^.^.^.^.6X9X",
";X-X-X*X*X*X-X,XhXpX:X,X,X,X,X,XbXJXKXSXmXiXpXiXuXtXpXpXmXAXzXvXbXgXfXpXhXpXgXMXSXAX7X^.6XuXpXpX:X,XpXpXpXbXNXNXNXnXvXvXvXmXmXcX",
"z l ,.<.<.+.<.5.0.-.-.;.q.6.5.c ].:XhXtXE.'.r.b.b.c.m.m.n.k.k.g.9.8.d.b.r.b.'.+X#X;Xj.u.f.g.b.8.<.4.w.w.m.m.[.[.}.}.{.@X@X<X,XfX",
"- & V V V & n A A n v N N N M , 9.[.=XOXj.h A F ~ G L L ^ e q : Z ; = 1 S 2 ,.).'.T.u.6 7 = F ; & n C G ( O.3.w.w.m.m._.[.|.&XuX",
", n Z F 1 1 H J ` A b M N D K L 9.{.~.W.a.w & b G #.P A J  .( ( O._ / 2 5 E =.).~.^.p.8 = & n , < < R | +.8.r.)._._._.}.}.}.*XfX",
"< Z F q q q /  ._ G Z S R D P L b.+X^.P.p.w Z Z G #.J Z J  .J ( O.O.( | i R +.D.~.9XJ.u.9 C m Z 5 H H | <.m.m.m.r.r._._.}.}.@XyX",
"q q q e e e >.O.) ~ ~ | | H ( _ '.-X7XP.@ s.%.( J J H Z J  .F F ( O.O.o./ 1 u g.T.9XP.j.{ ' U #.o.G G ] 4.v.m.4.3.3.4.m.|.|.@X6X",
"e q q e 9 q ^ ^ ~ _ (  .X.S F ^ [.-X6XP.O g &.%.` J J M D ! J J #.#.#.%.%.J o.).;X0XW.h.{ ' U G S D L ` %.O.O.O. .#.&.e.e._.].^.",
"l 9 9 ~ 9 ~ G G / ] %.%.X., Z ( _.:X/.J.X w t.&.#.! D N D Y ! ! &.! ! &.&.P *.`.-XfXE.h.{ ' U A Z K Q ! E H H S Y ! $.:.q.q.).^.",
"w 9 : ~ _ ( P  ./ %.&.$.E * S ( _.:X-XK.o 7 H  .$.! Y M N N Q Q Q ! D K K Q :.|.:XyXI.u.e ` } K A Q Q Q T Y S N T Q Q :.:.:.`.yX",
"6 % = q / | | i a o.O.| 5 > 1 | `.=X/.K.@ 6 > u +.+...< < < W X.X.E < S S T C.}.-X6Xa.8 0 | $.H < Y Q ! W R 4 < Y Y Q Q :.q.`.fX",
". . % % > 0 y r t g e 0 0 % 7 y G.*X^.K.@ o % 7 g x x y y y y j j a y y u p B.{.~.W.@ X 6 7 u 0 > > 2 | +.d q 1 < < S H X.0.[.rX",
"p.p.i.f.f.f.A.J.K.E.z.G.F.S.F.G.-XuXzX9XP.J.a.I.U.T.T.T.U.H.U.T.T.OXOXOXoX{.*X>XyX0XL.p.i.f.S.f.f.f.g.G.G.G.k.f.g.c c g.).].:XSX",
"9X5X6X-X/.^.4X4XxXkXdXsXyX7X7XuXSXKXHXHXcXqX8XfXfXkXSXGXSXfXfXfXfXSXKXKXJXNXNXMXGXPXqX5X^.^.^.5X5XW.W.6X6X6X5XW.Q.Q.T.Q.Q.rXSXLX",
"0XfXgXhXpXfXxXxXxXkXdXdXuXyXuXpXhXjXNXMXmXfXrXrXrXrXgXZXgXaXaXaXuXgXJXSXgXpX,X,XgXkXsXrX(.>X7XfXkXmXmXDXAXAX0X0XMXMXMXgXfXMXSXFX",
"rXaXhX<XhXgXxXxX9XsXeXtX:X-X-X=X&X<X:X:X:X:X$X@X+XoX@X:X:X$X:X$X$X$XtXtX:X=X}.`.@X<X$X$X=X*X-XaXgXNXFXLXFXAXmXfXNXNXNXgXaXgXgXiX",
"g.)._.|.}.:X0X5XZ.j.n.n.).D.V.0.:.:.q.6.V.6.@.@.@.| ..5.5.5.r.r.9.8.8.8.8.6.=.T $.4.3.5.V.V.V.'.XX+X*X:X:X;XT.U.{.{.`.).b.'.].]."
};
